<?xml version="1.0" standalone="no" ?>
<!DOCTYPE svg PUBLIC "-//W3C//DTD SVG 1.1//EN" "http://www.w3.org/Graphics/SVG/1.1/DTD/svg11.dtd">
<svg width="1374px" height="1592px" viewBox="0 0 1374 1592" style="background-color: #ffffff00" xmlns="http://www.w3.org/2000/svg" xmlns:xlink="http://www.w3.org/1999/xlink" version="1.1" >
<path stroke="none" fill="#f9df37" transform="matrix(0.166667 0 0 0.166667 -30.0333 -49.3333)" d="M 6780.19,9489.61 A 102.2,102.2 0 1 0 6984.59,9489.61A 102.2,102.2 0 1 0 6780.19,9489.61Z " />
<path stroke="none" fill="#f9df37" transform="matrix(0.166667 0 0 0.166667 -30.0333 -49.3333)" d="M 6636.19,9240.61 A 102.2,102.2 0 1 0 6840.59,9240.61A 102.2,102.2 0 1 0 6636.19,9240.61Z " />
<path stroke="none" fill="#f9df37" transform="matrix(0.166667 0 0 0.166667 -30.0333 -49.3333)" d="M 4180.73,7658.37 A 102,102 0 1 0 4384.73,7658.37A 102,102 0 1 0 4180.73,7658.37Z " />
<path stroke="none" fill="#f9df37" transform="matrix(0.166667 0 0 0.166667 -30.0333 -49.3333)" d="M 4429.73,7094.37 A 102,102 0 1 0 4633.73,7094.37A 102,102 0 1 0 4429.73,7094.37Z " />
<path stroke="none" fill="#8ce2c6" transform="matrix(0.166667 0 0 0.166667 -30.0333 -49.3333)" d="M 4429.73,6518.37 A 102,102 0 1 0 4633.73,6518.37A 102,102 0 1 0 4429.73,6518.37Z " />
<path stroke="none" fill="#8ce2c6" transform="matrix(0.166667 0 0 0.166667 -30.0333 -49.3333)" d="M 4180.73,7370.37 A 102,102 0 1 0 4384.73,7370.37A 102,102 0 1 0 4180.73,7370.37Z " />
<path stroke="none" fill="#8ce2c6" transform="matrix(0.166667 0 0 0.166667 -30.0333 -49.3333)" d="M 3192.93,9222.13 A 102.2,102.2 0 1 0 3397.33,9222.13A 102.2,102.2 0 1 0 3192.93,9222.13Z " />
<path stroke="none" fill="#f9df37" transform="matrix(0.166667 0 0 0.166667 -30.0333 -49.3333)" d="M 6441.23,7141.68 A 102.2,102.2 0 1 0 6645.63,7141.68A 102.2,102.2 0 1 0 6441.23,7141.68Z " />
<path stroke="none" fill="#f9df37" transform="matrix(0.166667 0 0 0.166667 -30.0333 -49.3333)" d="M 6169.46,7687.81 A 102.2,102.2 0 1 0 6373.86,7687.81A 102.2,102.2 0 1 0 6169.46,7687.81Z " />
<path stroke="none" fill="#ff8181" transform="matrix(0.166667 0 0 0.166667 -30.0333 -49.3333)" d="M 6002.88,6845.28 A 102.2,102.2 0 1 0 6207.28,6845.28A 102.2,102.2 0 1 0 6002.88,6845.28Z " />
<path stroke="none" fill="#ff8181" transform="matrix(0.166667 0 0 0.166667 -30.0333 -49.3333)" d="M 7464.65,7367.2 A 102.2,102.2 0 1 0 7669.05,7367.2A 102.2,102.2 0 1 0 7464.65,7367.2Z " />
<path stroke="none" fill="#f9df37" transform="matrix(0.166667 0 0 0.166667 -30.0333 -49.3333)" d="M 7148.66,3444.47 A 102.036,102.036 0 1 0 7352.73,3444.47A 102.036,102.036 0 1 0 7148.66,3444.47Z " />
<path stroke="none" fill="#f9df37" transform="matrix(0.166667 0 0 0.166667 -30.0333 -49.3333)" d="M 7178.66,3159.47 A 102.036,102.036 0 1 0 7382.73,3159.47A 102.036,102.036 0 1 0 7178.66,3159.47Z " />
<path stroke="none" fill="#f9df37" transform="matrix(0.166667 0 0 0.166667 -30.0333 -49.3333)" d="M 7502.66,2973.47 A 102.036,102.036 0 1 0 7706.73,2973.47A 102.036,102.036 0 1 0 7502.66,2973.47Z " />
<path stroke="none" fill="#f9df37" transform="matrix(0.166667 0 0 0.166667 -30.0333 -49.3333)" d="M 7541.66,2751.47 A 102.036,102.036 0 1 0 7745.73,2751.47A 102.036,102.036 0 1 0 7541.66,2751.47Z " />
<path stroke="none" fill="#8ce2c6" transform="matrix(0.166667 0 0 0.166667 -30.0333 -49.3333)" d="M 4938.63,3314.32 A 102,102 0 1 0 5142.63,3314.32A 102,102 0 1 0 4938.63,3314.32Z " />
<path stroke="none" fill="#8ce2c6" transform="matrix(0.166667 0 0 0.166667 -30.0333 -49.3333)" d="M 5082.63,3065.32 A 102,102 0 1 0 5286.63,3065.32A 102,102 0 1 0 5082.63,3065.32Z " />
<path stroke="none" fill="#8ce2c6" transform="matrix(0.166667 0 0 0.166667 -30.0333 -49.3333)" d="M 5370.63,3065.32 A 102,102 0 1 0 5574.63,3065.32A 102,102 0 1 0 5370.63,3065.32Z " />
<path stroke="none" fill="#8ce2c6" transform="matrix(0.166667 0 0 0.166667 -30.0333 -49.3333)" d="M 5511.63,2816.32 A 102,102 0 1 0 5715.63,2816.32A 102,102 0 1 0 5511.63,2816.32Z " />
<path stroke="none" fill="#ff8181" transform="matrix(0.166667 0 0 0.166667 -30.0333 -49.3333)" d="M 2938.33,3210.28 A 102,102 0 1 0 3142.34,3210.28A 102,102 0 1 0 2938.33,3210.28Z " />
<path stroke="none" fill="#ff8181" transform="matrix(0.166667 0 0 0.166667 -30.0333 -49.3333)" d="M 2938.33,2922.28 A 102,102 0 1 0 3142.33,2922.28A 102,102 0 1 0 2938.33,2922.28Z " />
<path stroke="none" fill="#ff8181" transform="matrix(0.166667 0 0 0.166667 -30.0333 -49.3333)" d="M 3187.33,2778.28 A 102,102 0 1 0 3391.33,2778.28A 102,102 0 1 0 3187.33,2778.28Z " />
<path stroke="none" fill="#ff8181" transform="matrix(0.166667 0 0 0.166667 -30.0333 -49.3333)" d="M 3187.33,3354.28 A 102,102 0 1 0 3391.33,3354.28A 102,102 0 1 0 3187.33,3354.28Z " />
<path stroke="none" fill="#8ce2c6" transform="matrix(0.166667 0 0 0.166667 -30.0333 -49.3333)" d="M 7620.72,5079.87 A 102,102 0 1 0 7824.72,5079.87A 102,102 0 1 0 7620.72,5079.87Z " />
<path stroke="none" fill="#8ce2c6" transform="matrix(0.166667 0 0 0.166667 -30.0333 -49.3333)" d="M 6966.56,5138.44 A 102,102 0 1 0 7170.56,5138.44A 102,102 0 1 0 6966.56,5138.44Z " />
<path stroke="none" fill="#8ce2c6" transform="matrix(0.166667 0 0 0.166667 -30.0333 -49.3333)" d="M 3300.08,1209 A 102,102 0 1 0 3504.08,1209A 102,102 0 1 0 3300.08,1209Z " />
<path stroke="none" fill="#8ce2c6" transform="matrix(0.166667 0 0 0.166667 -30.0333 -49.3333)" d="M 3090.08,1342 A 102,102 0 1 0 3294.08,1342A 102,102 0 1 0 3090.08,1342Z " />
<path stroke="none" fill="#f9df37" transform="matrix(0.166667 0 0 0.166667 -30.0333 -49.3333)" d="M 2915.52,4992.1 A 102,102 0 1 0 3119.52,4992.1A 102,102 0 1 0 2915.52,4992.1Z " />
<path stroke="none" fill="#f9df37" transform="matrix(0.166667 0 0 0.166667 -30.0333 -49.3333)" d="M 3865.52,5466.1 A 102,102 0 1 0 4069.52,5466.1A 102,102 0 1 0 3865.52,5466.1Z " />
<path stroke="none" fill="#000000" transform="matrix(0.166667 0 0 0.166667 -30.0333 -49.3333)" d="M 2279.22,5418.38 L 2259.42,5429.81 L 2259.42,5130.38 L 2279.22,5141.81 L 2279.22,5418.38 Z " />
<path stroke="none" fill="#000000" transform="matrix(0.166667 0 0 0.166667 -30.0333 -49.3333)" d="M 2331.06,5394.17 L 2311.26,5394.17 L 2311.26,5166.03 L 2331.06,5166.03 L 2331.06,5394.17 Z " />
<path stroke="none" fill="#000000" transform="matrix(0.166667 0 0 0.166667 -30.0333 -49.3333)" d="M 2518.72,5556.67 L 2518.72,5579.53 L 2259.42,5429.81 L 2279.22,5418.38 L 2518.72,5556.67 Z " />
<path stroke="none" fill="#000000" transform="matrix(0.166667 0 0 0.166667 -30.0333 -49.3333)" d="M 2758.22,5418.38 L 2778.02,5429.81 L 2518.72,5579.53 L 2518.72,5556.67 L 2758.22,5418.38 Z " />
<path stroke="none" fill="#000000" transform="matrix(0.166667 0 0 0.166667 -30.0333 -49.3333)" d="M 2711.33,5385.6 L 2721.23,5402.74 L 2523.67,5516.81 L 2513.77,5499.67 L 2711.33,5385.6 Z " />
<path stroke="none" fill="#000000" transform="matrix(0.166667 0 0 0.166667 -30.0333 -49.3333)" d="M 2758.22,5141.81 L 2768.12,5136.1 L 2778.02,5141.81 L 2778.02,5429.81 L 2758.22,5418.38 L 2758.22,5141.81 Z " />
<path stroke="none" fill="#000000" transform="matrix(0.166667 0 0 0.166667 -30.0333 -49.3333)" d="M 2518.72,5003.53 L 2518.72,4980.67 L 2768.12,5124.67 L 2768.12,5136.1 L 2758.22,5141.81 L 2518.72,5003.53 Z " />
<path stroke="none" fill="#000000" transform="matrix(0.166667 0 0 0.166667 -30.0333 -49.3333)" d="M 2513.77,5060.53 L 2523.67,5043.38 L 2721.23,5157.45 L 2711.33,5174.6 L 2513.77,5060.53 Z " />
<path stroke="none" fill="#000000" transform="matrix(0.166667 0 0 0.166667 -30.0333 -49.3333)" d="M 2279.22,5141.81 L 2259.42,5130.38 L 2518.72,4980.67 L 2518.72,5003.53 L 2279.22,5141.81 Z " />
<path stroke="none" fill="#ff8181" transform="matrix(0.166667 0 0 0.166667 -30.0333 -49.3333)" d="M 2130.93,7424.72 A 102.2,102.2 0 1 0 2335.33,7424.72A 102.2,102.2 0 1 0 2130.93,7424.72Z " />
<path stroke="none" fill="#ff8181" transform="matrix(0.166667 0 0 0.166667 -30.0333 -49.3333)" d="M 2130.93,6851.72 A 102.2,102.2 0 1 0 2335.33,6851.72A 102.2,102.2 0 1 0 2130.93,6851.72Z " />
<path stroke="none" fill="#ff8181" transform="matrix(0.166667 0 0 0.166667 -30.0333 -49.3333)" d="M 2616.93,6995.72 A 102.2,102.2 0 1 0 2821.33,6995.72A 102.2,102.2 0 1 0 2616.93,6995.72Z " />
<path stroke="none" fill="#ff8181" transform="matrix(0.166667 0 0 0.166667 -30.0333 -49.3333)" d="M 2616.93,7283.72 A 102.2,102.2 0 1 0 2821.33,7283.72A 102.2,102.2 0 1 0 2616.93,7283.72Z " />
<path stroke="none" fill="#000000" transform="matrix(0.166667 0 0 0.166667 -30.0333 -49.3333)" d="M 1973.83,7286.43 L 1993.63,7275 L 2238.08,7416.14 L 2228.18,7433.29 L 1973.83,7286.43 Z " />
<path stroke="none" fill="#000000" transform="matrix(0.166667 0 0 0.166667 -30.0333 -49.3333)" d="M 2030.62,7259.36 L 2040.52,7242.22 L 2264,7371.25 L 2254.1,7388.4 L 2030.62,7259.36 Z " />
<path stroke="none" fill="#000000" transform="matrix(0.166667 0 0 0.166667 -30.0333 -49.3333)" d="M 1973.83,6988 L 1993.63,6999.43 L 1993.63,7275 L 1973.83,7286.43 L 1973.83,6988 Z " />
<path stroke="none" fill="#000000" transform="matrix(0.166667 0 0 0.166667 -30.0333 -49.3333)" d="M 2222.43,6844.6 L 2242.23,6856.03 L 1993.63,6999.43 L 1973.83,6988 L 2222.43,6844.6 Z " />
<path stroke="none" fill="#000000" transform="matrix(0.166667 0 0 0.166667 -30.0333 -49.3333)" d="M 2253.2,6886.49 L 2263.09,6903.64 L 2040.34,7032.13 L 2030.44,7014.98 L 2253.2,6886.49 Z " />
<path stroke="none" fill="#000000" transform="matrix(0.166667 0 0 0.166667 -30.0333 -49.3333)" d="M 2222.43,6562.32 L 2242.23,6562.32 L 2242.23,6856.03 L 2222.43,6844.6 L 2222.43,6562.32 Z " />
<text x="0" y="0" stroke="none" fill="#000000" transform="matrix(0.166667 0 0 0.166667 484.055 1153.59)" font-style="normal" font-weight="normal" font-size="200px" font-family="Arial" >
O</text>
<path stroke="none" fill="#000000" transform="matrix(0.166667 0 0 0.166667 -30.0333 -49.3333)" d="M 2729.23,7276.32 L 2709.43,7290.71 L 2709.43,7000.56 L 2719.33,6995.52 L 2729.23,7002.71 L 2729.23,7276.32 Z " />
<path stroke="none" fill="#000000" transform="matrix(0.166667 0 0 0.166667 -30.0333 -49.3333)" d="M 2781.07,7245.85 L 2761.27,7245.85 L 2761.27,7033.18 L 2781.07,7033.18 L 2781.07,7245.85 Z " />
<path stroke="none" fill="#000000" transform="matrix(0.166667 0 0 0.166667 -30.0333 -49.3333)" d="M 2989.55,7360.88 L 2997.11,7384.15 L 2709.43,7290.71 L 2729.23,7276.32 L 2989.55,7360.88 Z " />
<path stroke="none" fill="#000000" transform="matrix(0.166667 0 0 0.166667 -30.0333 -49.3333)" d="M 3088.81,7224.18 L 3104.84,7235.81 L 2997.11,7384.15 L 2989.55,7360.88 L 3088.81,7224.18 Z " />
<path stroke="none" fill="#000000" transform="matrix(0.166667 0 0 0.166667 -30.0333 -49.3333)" d="M 2989.55,6918.15 L 2997.11,6894.88 L 3112.69,7054.03 L 3096.67,7065.66 L 2989.55,6918.15 Z " />
<path stroke="none" fill="#000000" transform="matrix(0.166667 0 0 0.166667 -30.0333 -49.3333)" d="M 2729.23,7002.71 L 2719.33,6995.52 L 2721.07,6984.54 L 2997.11,6894.88 L 2989.55,6918.15 L 2729.23,7002.71 Z " />
<text x="0" y="0" stroke="none" fill="#000000" transform="matrix(0.166667 0 0 0.166667 470.688 1069.09)" font-style="normal" font-weight="normal" font-size="200px" font-family="Arial" >
O</text>
<path stroke="none" fill="#000000" transform="matrix(0.166667 0 0 0.166667 -30.0333 -49.3333)" d="M 3013.11,6729.63 L 3031.95,6735.75 L 2972.27,6919.47 L 2953.44,6913.36 L 3013.11,6729.63 Z " />
<path stroke="none" fill="#000000" transform="matrix(0.166667 0 0 0.166667 -30.0333 -49.3333)" d="M 3062.43,6745.65 L 3081.27,6751.77 L 3021.58,6935.51 L 3002.75,6929.4 L 3062.43,6745.65 Z " />
<text x="0" y="0" stroke="none" fill="#000000" transform="matrix(0.166667 0 0 0.166667 470.688 1238.05)" font-style="normal" font-weight="normal" font-size="200px" font-family="Arial" >
O</text>
<path stroke="none" fill="#000000" transform="matrix(0.166667 0 0 0.166667 -30.0333 -49.3333)" d="M 3086.13,7542.16 L 3067.3,7548.28 L 3002.74,7349.66 L 3021.57,7343.54 L 3086.13,7542.16 Z " />
<path stroke="none" fill="#000000" transform="matrix(0.166667 0 0 0.166667 -30.0333 -49.3333)" d="M 3036.84,7558.18 L 3018.01,7564.3 L 2953.45,7365.68 L 2972.28,7359.56 L 3036.84,7558.18 Z " />
<path stroke="none" fill="#000000" transform="matrix(0.166667 0 0 0.166667 -30.0333 -49.3333)" d="M 2480.51,6834.33 L 2492.15,6818.31 L 2721.07,6984.54 L 2719.33,6995.52 L 2709.43,7000.56 L 2480.51,6834.33 Z " />
<path stroke="none" fill="#000000" transform="matrix(0.166667 0 0 0.166667 -30.0333 -49.3333)" d="M 3017.52,4980.67 L 3017.52,5003.53 L 2778.02,5141.81 L 2768.12,5136.1 L 2768.12,5124.67 L 3017.52,4980.67 Z " />
<path stroke="none" fill="#000000" transform="matrix(0.166667 0 0 0.166667 -30.0333 -49.3333)" d="M 3266.92,5124.67 L 3266.92,5136.1 L 3256.63,5141.59 L 3017.52,5003.53 L 3017.52,4980.67 L 3266.92,5124.67 Z " />
<text x="0" y="0" stroke="none" fill="#000000" transform="matrix(0.166667 0 0 0.166667 459.887 747.683)" font-style="normal" font-weight="normal" font-size="200px" font-family="Arial" >
O</text>
<path stroke="none" fill="#000000" transform="matrix(0.166667 0 0 0.166667 -30.0333 -49.3333)" d="M 2981.7,4815.57 L 3001.5,4815.57 L 3001.5,5007.06 L 2981.7,5007.06 L 2981.7,4815.57 Z " />
<path stroke="none" fill="#000000" transform="matrix(0.166667 0 0 0.166667 -30.0333 -49.3333)" d="M 3033.54,4815.57 L 3053.34,4815.57 L 3053.34,5007.06 L 3033.54,5007.06 L 3033.54,4815.57 Z " />
<text x="0" y="0" stroke="none" fill="#000000" transform="matrix(0.166667 0 0 0.166667 581.038 874.783)" font-style="normal" font-weight="normal" font-size="200px" font-family="Arial" >
H</text>
<text x="0" y="0" stroke="none" fill="#000000" transform="matrix(0.166667 0 0 0.166667 605.111 882.116)" font-style="normal" font-weight="normal" font-size="150px" font-family="Arial" >
2</text>
<text x="0" y="0" stroke="none" fill="#000000" transform="matrix(0.166667 0 0 0.166667 619.014 874.783)" font-style="normal" font-weight="normal" font-size="200px" font-family="Arial" >
N</text>
<path stroke="none" fill="#000000" transform="matrix(0.166667 0 0 0.166667 -30.0333 -49.3333)" d="M 4206.22,5316.98 L 4216.12,5322.7 L 4215.73,5334.35 L 4067.45,5419.97 L 4057.55,5402.82 L 4206.22,5316.98 Z " />
<path stroke="none" fill="#000000" transform="matrix(0.166667 0 0 0.166667 -30.0333 -49.3333)" d="M 4206.22,5040.41 L 4216.12,5034.7 L 4226.02,5041.11 L 4226.02,5316.54 L 4216.12,5322.7 L 4206.22,5316.98 L 4206.22,5040.41 Z " />
<path stroke="none" fill="#000000" transform="matrix(0.166667 0 0 0.166667 -30.0333 -49.3333)" d="M 3966.72,4902.13 L 3966.72,4890.7 L 3976.62,4884.98 L 4215.52,5022.92 L 4216.12,5034.7 L 4206.22,5040.41 L 3966.72,4902.13 Z " />
<path stroke="none" fill="#000000" transform="matrix(0.166667 0 0 0.166667 -30.0333 -49.3333)" d="M 4480.6,5440.59 L 4450.44,5492.81 L 4215.73,5334.35 L 4216.12,5322.7 L 4226.02,5316.54 L 4480.6,5440.59 Z " />
<text x="0" y="0" stroke="none" fill="#000000" transform="matrix(0.166667 0 0 0.166667 701.22 778.783)" font-style="normal" font-weight="normal" font-size="200px" font-family="Arial" >
OH</text>
<path stroke="none" fill="#000000" transform="matrix(0.166667 0 0 0.166667 -30.0333 -49.3333)" d="M 4357.9,4918.02 L 4388.05,4970.24 L 4226.02,5041.11 L 4216.12,5034.7 L 4215.52,5022.92 L 4357.9,4918.02 Z " />
<path stroke="none" fill="#000000" transform="matrix(0.166667 0 0 0.166667 -30.0333 -49.3333)" d="M 3956.82,4602.7 L 3976.62,4602.7 L 3976.62,4884.98 L 3966.72,4890.7 L 3956.82,4884.98 L 3956.82,4602.7 Z " />
<path stroke="none" fill="#000000" transform="matrix(0.166667 0 0 0.166667 -30.0333 -49.3333)" d="M 3722.27,5043.27 L 3712.37,5026.13 L 3956.82,4884.98 L 3966.72,4890.7 L 3966.72,4902.13 L 3722.27,5043.27 Z " />
<path stroke="none" fill="#000000" transform="matrix(0.166667 0 0 0.166667 -30.0333 -49.3333)" d="M 3297.07,5424.1 L 3236.77,5424.1 L 3256.63,5141.59 L 3266.92,5136.1 L 3277.21,5141.59 L 3297.07,5424.1 Z " />
<path stroke="none" fill="#000000" transform="matrix(0.166667 0 0 0.166667 -30.0333 -49.3333)" d="M 3511.37,4983.53 L 3521.27,5000.67 L 3277.21,5141.59 L 3266.92,5136.1 L 3266.92,5124.67 L 3511.37,4983.53 Z " />
<text x="0" y="0" stroke="none" fill="#000000" transform="matrix(0.166667 0 0 0.166667 78.7948 789.728)" font-style="normal" font-weight="normal" font-size="200px" font-family="Fira Code Retina" >
String</text>
<text x="0" y="0" stroke="none" fill="#000000" transform="matrix(0.166667 0 0 0.166667 89.0512 831.061)" font-style="normal" font-weight="normal" font-size="200px" font-family="Fira Code Retina" >
Embed</text>
<text x="0" y="0" stroke="none" fill="#000000" transform="matrix(0.166667 0 0 0.166667 6.99997 92.2)" font-style="normal" font-weight="normal" font-size="200px" font-family="Fira Code Retina" >
Monomolecular</text>
<text x="0" y="0" stroke="none" fill="#000000" transform="matrix(0.166667 0 0 0.166667 89.0512 133.533)" font-style="normal" font-weight="normal" font-size="200px" font-family="Fira Code Retina" >
Embed</text>
<path stroke="none" fill="#000000" transform="matrix(0.166667 0 0 0.166667 -30.0333 -49.3333)" d="M 2938.78,1210.48 L 2918.98,1221.92 L 2918.98,922.484 L 2938.78,933.915 L 2938.78,1210.48 Z " />
<path stroke="none" fill="#000000" transform="matrix(0.166667 0 0 0.166667 -30.0333 -49.3333)" d="M 3183.23,1351.63 L 3173.33,1368.77 L 2918.98,1221.92 L 2938.78,1210.48 L 3183.23,1351.63 Z " />
<path stroke="none" fill="#000000" transform="matrix(0.166667 0 0 0.166667 -30.0333 -49.3333)" d="M 3209.15,1306.73 L 3199.25,1323.88 L 2975.77,1194.85 L 2985.67,1177.7 L 3209.15,1306.73 Z " />
<path stroke="none" fill="#000000" transform="matrix(0.166667 0 0 0.166667 -30.0333 -49.3333)" d="M 3417.78,933.915 L 3437.58,922.484 L 3437.58,1216.2 L 3417.78,1216.2 L 3417.78,933.915 Z " />
<path stroke="none" fill="#000000" transform="matrix(0.166667 0 0 0.166667 -30.0333 -49.3333)" d="M 3365.94,958.129 L 3385.74,958.129 L 3385.74,1216.2 L 3365.94,1216.2 L 3365.94,958.129 Z " />
<path stroke="none" fill="#000000" transform="matrix(0.166667 0 0 0.166667 -30.0333 -49.3333)" d="M 3178.28,795.631 L 3178.28,784.2 L 3188.57,778.707 L 3437.58,922.484 L 3417.78,933.915 L 3178.28,795.631 Z " />
<path stroke="none" fill="#000000" transform="matrix(0.166667 0 0 0.166667 -30.0333 -49.3333)" d="M 2938.78,933.915 L 2918.98,922.484 L 3167.99,778.707 L 3178.28,784.2 L 3178.28,795.631 L 2938.78,933.915 Z " />
<path stroke="none" fill="#000000" transform="matrix(0.166667 0 0 0.166667 -30.0333 -49.3333)" d="M 3148.13,496.2 L 3208.43,496.2 L 3188.57,778.707 L 3178.28,784.2 L 3167.99,778.707 L 3148.13,496.2 Z " />
<text x="0" y="0" stroke="none" fill="#000000" transform="matrix(0.166667 0 0 0.166667 357.175 94.3666)" font-style="normal" font-weight="normal" font-size="200px" font-family="Arial" >
MeO</text>
<path stroke="none" fill="#000000" transform="matrix(0.166667 0 0 0.166667 -30.0333 -49.3333)" d="M 2757.09,863.827 L 2787.24,811.607 L 2802.86,824.16 L 2775.77,871.075 L 2757.09,863.827 Z " />
<path stroke="none" fill="#000000" transform="matrix(0.166667 0 0 0.166667 -30.0333 -49.3333)" d="M 2809.49,884.16 L 2831.05,846.823 L 2846.67,859.376 L 2828.17,891.407 L 2809.49,884.16 Z " />
<path stroke="none" fill="#000000" transform="matrix(0.166667 0 0 0.166667 -30.0333 -49.3333)" d="M 2861.89,904.492 L 2874.86,882.04 L 2890.47,894.593 L 2880.57,911.74 L 2861.89,904.492 Z " />
<path stroke="none" fill="#f9df37" transform="matrix(0.166667 0 0 0.166667 -30.0333 -49.3333)" d="M 4929.68,1216.2 A 102,102 0 1 0 5133.68,1216.2A 102,102 0 1 0 4929.68,1216.2Z " />
<path stroke="none" fill="#f9df37" transform="matrix(0.166667 0 0 0.166667 -30.0333 -49.3333)" d="M 4699.28,1343.2 A 102,102 0 1 0 4903.28,1343.2A 102,102 0 1 0 4699.28,1343.2Z " />
<text x="0" y="0" stroke="none" fill="#000000" transform="matrix(0.166667 0 0 0.166667 796.58 166.367)" font-style="normal" font-weight="normal" font-size="200px" font-family="Arial" >
H</text>
<path stroke="none" fill="#000000" transform="matrix(0.166667 0 0 0.166667 -30.0333 -49.3333)" d="M 4542.78,1210.48 L 4522.98,1221.92 L 4522.98,933.915 L 4532.88,928.2 L 4542.78,933.915 L 4542.78,1210.48 Z " />
<path stroke="none" fill="#000000" transform="matrix(0.166667 0 0 0.166667 -30.0333 -49.3333)" d="M 4787.23,1351.63 L 4777.33,1368.77 L 4522.98,1221.92 L 4542.78,1210.48 L 4787.23,1351.63 Z " />
<path stroke="none" fill="#000000" transform="matrix(0.166667 0 0 0.166667 -30.0333 -49.3333)" d="M 4813.15,1306.73 L 4803.25,1323.88 L 4579.77,1194.85 L 4589.67,1177.7 L 4813.15,1306.73 Z " />
<path stroke="none" fill="#000000" transform="matrix(0.166667 0 0 0.166667 -30.0333 -49.3333)" d="M 5021.78,933.915 L 5031.68,928.2 L 5041.58,933.916 L 5041.58,1121.57 L 5021.78,1121.57 L 5021.78,933.915 Z " />
<path stroke="none" fill="#000000" transform="matrix(0.166667 0 0 0.166667 -30.0333 -49.3333)" d="M 4782.28,795.631 L 4782.28,784.2 L 4792.18,778.484 L 5031.68,916.768 L 5031.68,928.2 L 5021.78,933.915 L 4782.28,795.631 Z " />
<path stroke="none" fill="#000000" transform="matrix(0.166667 0 0 0.166667 -30.0333 -49.3333)" d="M 4542.78,933.915 L 4532.88,928.2 L 4532.88,916.768 L 4772.38,778.484 L 4782.28,784.2 L 4782.28,795.631 L 4542.78,933.915 Z " />
<path stroke="none" fill="#000000" transform="matrix(0.166667 0 0 0.166667 -30.0333 -49.3333)" d="M 4589.67,966.701 L 4579.77,949.554 L 4777.33,835.484 L 4787.23,852.631 L 4589.67,966.701 Z " />
<text x="0" y="0" stroke="none" fill="#000000" transform="matrix(0.166667 0 0 0.166667 753.097 46.3667)" font-style="normal" font-weight="normal" font-size="200px" font-family="Arial" >
Me</text>
<path stroke="none" fill="#000000" transform="matrix(0.166667 0 0 0.166667 -30.0333 -49.3333)" d="M 4772.38,607.167 L 4792.18,607.167 L 4792.18,778.484 L 4782.28,784.2 L 4772.38,778.484 L 4772.38,607.167 Z " />
<text x="0" y="0" stroke="none" fill="#000000" transform="matrix(0.166667 0 0 0.166667 624.508 94.3666)" font-style="normal" font-weight="normal" font-size="200px" font-family="Arial" >
MeO</text>
<path stroke="none" fill="#000000" transform="matrix(0.166667 0 0 0.166667 -30.0333 -49.3333)" d="M 4371.22,846.291 L 4381.12,829.144 L 4532.88,916.768 L 4532.88,928.2 L 4522.98,933.915 L 4371.22,846.291 Z " />
<path stroke="none" fill="#000000" transform="matrix(0.166667 0 0 0.166667 -30.0333 -49.3333)" d="M 5271.2,778.487 L 5281.1,784.203 L 5281.1,795.635 L 5041.58,933.916 L 5031.68,928.2 L 5031.68,916.768 L 5271.2,778.487 Z " />
<path stroke="none" fill="#000000" transform="matrix(0.166667 0 0 0.166667 -30.0333 -49.3333)" d="M 5530.51,916.778 L 5530.51,939.641 L 5281.1,795.635 L 5281.1,784.203 L 5291,778.488 L 5530.51,916.778 Z " />
<path stroke="none" fill="#000000" transform="matrix(0.166667 0 0 0.166667 -30.0333 -49.3333)" d="M 5535.46,859.776 L 5525.56,876.923 L 5327.99,762.848 L 5337.89,745.701 L 5535.46,859.776 Z " />
<path stroke="none" fill="#000000" transform="matrix(0.166667 0 0 0.166667 -30.0333 -49.3333)" d="M 5770.03,778.488 L 5789.83,789.919 L 5530.51,939.641 L 5530.51,916.778 L 5770.03,778.488 Z " />
<path stroke="none" fill="#000000" transform="matrix(0.166667 0 0 0.166667 -30.0333 -49.3333)" d="M 5770.03,501.919 L 5789.83,490.488 L 5789.83,789.919 L 5770.03,778.488 L 5770.03,501.919 Z " />
<path stroke="none" fill="#000000" transform="matrix(0.166667 0 0 0.166667 -30.0333 -49.3333)" d="M 5718.19,526.133 L 5737.99,526.133 L 5737.99,754.274 L 5718.19,754.274 L 5718.19,526.133 Z " />
<path stroke="none" fill="#000000" transform="matrix(0.166667 0 0 0.166667 -30.0333 -49.3333)" d="M 5530.51,363.628 L 5530.51,340.765 L 5789.83,490.488 L 5770.03,501.919 L 5530.51,363.628 Z " />
<path stroke="none" fill="#000000" transform="matrix(0.166667 0 0 0.166667 -30.0333 -49.3333)" d="M 5291,501.919 L 5271.2,490.488 L 5530.51,340.765 L 5530.51,363.628 L 5291,501.919 Z " />
<path stroke="none" fill="#000000" transform="matrix(0.166667 0 0 0.166667 -30.0333 -49.3333)" d="M 5337.89,534.706 L 5327.99,517.559 L 5525.56,403.484 L 5535.46,420.631 L 5337.89,534.706 Z " />
<path stroke="none" fill="#000000" transform="matrix(0.166667 0 0 0.166667 -30.0333 -49.3333)" d="M 5291,778.488 L 5281.1,784.203 L 5271.2,778.487 L 5271.2,490.488 L 5291,501.919 L 5291,778.488 Z " />
<path stroke="none" fill="#8ce2c6" transform="matrix(0.166667 0 0 0.166667 -30.0333 -49.3333)" d="M 7961.91,7655.2 A 102.036,102.036 0 1 0 8165.99,7655.2A 102.036,102.036 0 1 0 7961.91,7655.2Z " />
<path stroke="none" fill="#8ce2c6" transform="matrix(0.166667 0 0 0.166667 -30.0333 -49.3333)" d="M 6987.04,7468.28 A 102.036,102.036 0 1 0 7191.12,7468.28A 102.036,102.036 0 1 0 6987.04,7468.28Z " />
<path stroke="none" fill="#000000" transform="matrix(0.166667 0 0 0.166667 -30.0333 -49.3333)" d="M 7647.01,6632.83 L 7621.44,6674.64 L 7449.97,6604.03 L 7446.38,6550.21 L 7647.01,6632.83 Z " />
<path stroke="none" fill="#000000" transform="matrix(0.166667 0 0 0.166667 -30.0333 -49.3333)" d="M 7568.24,6684.85 L 7560.7,6703.16 L 7449.13,6657.22 L 7456.67,6638.91 L 7568.24,6684.85 Z " />
<path stroke="none" fill="#000000" transform="matrix(0.166667 0 0 0.166667 -30.0333 -49.3333)" d="M 7616.72,6859.3 L 7598.38,6847.03 L 7621.44,6674.64 L 7647.01,6632.83 L 7616.72,6859.3 Z " />
<path stroke="none" fill="#000000" transform="matrix(0.166667 0 0 0.166667 -30.0333 -49.3333)" d="M 7395.55,6987 L 7394.08,6964.98 L 7598.38,6847.03 L 7616.72,6859.3 L 7395.55,6987 Z " />
<path stroke="none" fill="#000000" transform="matrix(0.166667 0 0 0.166667 -30.0333 -49.3333)" d="M 7396.1,6929.52 L 7386.2,6912.37 L 7556.76,6813.9 L 7566.66,6831.04 L 7396.1,6929.52 Z " />
<path stroke="none" fill="#000000" transform="matrix(0.166667 0 0 0.166667 -30.0333 -49.3333)" d="M 7209.49,6910.39 L 7208.76,6899.38 L 7233.26,6898.76 L 7394.08,6964.98 L 7395.55,6987 L 7209.49,6910.39 Z " />
<path stroke="none" fill="#000000" transform="matrix(0.166667 0 0 0.166667 -30.0333 -49.3333)" d="M 7208.98,6715.22 L 7235.44,6699.94 L 7257.85,6714.95 L 7233.26,6898.76 L 7208.76,6899.38 L 7183.96,6902.26 L 7208.98,6715.22 Z " />
<path stroke="none" fill="#000000" transform="matrix(0.166667 0 0 0.166667 -30.0333 -49.3333)" d="M 7284.7,6738.19 L 7304.33,6740.82 L 7288.33,6860.42 L 7268.7,6857.79 L 7284.7,6738.19 Z " />
<path stroke="none" fill="#000000" transform="matrix(0.166667 0 0 0.166667 -30.0333 -49.3333)" d="M 7446.38,6550.21 L 7449.97,6604.03 L 7257.85,6714.95 L 7235.44,6699.94 L 7233.65,6673.04 L 7446.38,6550.21 Z " />
<text x="0" y="0" stroke="none" fill="#000000" transform="matrix(0.166667 0 0 0.166667 1113.33 1140.17)" font-style="normal" font-weight="normal" font-size="200px" font-family="Arial" >
N</text>
<path stroke="none" fill="#000000" transform="matrix(0.166667 0 0 0.166667 -30.0333 -49.3333)" d="M 7039.27,7008.66 L 7029.37,6991.51 L 7183.96,6902.26 L 7208.76,6899.38 L 7209.49,6910.39 L 7039.27,7008.66 Z " />
<path stroke="none" fill="#000000" transform="matrix(0.166667 0 0 0.166667 -30.0333 -49.3333)" d="M 6915.62,7311.53 L 6897.44,7295.16 L 6910.37,7172.13 L 6930.06,7174.2 L 6915.62,7311.53 Z " />
<path stroke="none" fill="#000000" transform="matrix(0.166667 0 0 0.166667 -30.0333 -49.3333)" d="M 6661.28,7365.59 L 6671.23,7343.24 L 6897.44,7295.16 L 6915.62,7311.53 L 6661.28,7365.59 Z " />
<path stroke="none" fill="#000000" transform="matrix(0.166667 0 0 0.166667 -30.0333 -49.3333)" d="M 6531.26,7140.4 L 6555.6,7142.96 L 6671.23,7343.24 L 6661.28,7365.59 L 6531.26,7140.4 Z " />
<path stroke="none" fill="#000000" transform="matrix(0.166667 0 0 0.166667 -30.0333 -49.3333)" d="M 6595.71,7153.03 L 6612.86,7143.13 L 6699.71,7293.57 L 6682.57,7303.47 L 6595.71,7153.03 Z " />
<path stroke="none" fill="#000000" transform="matrix(0.166667 0 0 0.166667 -30.0333 -49.3333)" d="M 6705.26,6947.16 L 6710.35,6971.1 L 6555.6,7142.96 L 6531.26,7140.4 L 6705.26,6947.16 Z " />
<path stroke="none" fill="#000000" transform="matrix(0.166667 0 0 0.166667 -30.0333 -49.3333)" d="M 6831.44,7003.34 L 6823.38,7021.43 L 6710.35,6971.1 L 6705.26,6947.16 L 6831.44,7003.34 Z " />
<text x="0" y="0" stroke="none" fill="#000000" transform="matrix(0.166667 0 0 0.166667 1066.42 1083.48)" font-style="normal" font-weight="normal" font-size="200px" font-family="Arial" >
O</text>
<path stroke="none" fill="#000000" transform="matrix(0.166667 0 0 0.166667 -30.0333 -49.3333)" d="M 6647.8,6843.52 L 6667.17,6839.4 L 6697.01,6979.81 L 6677.65,6983.93 L 6647.8,6843.52 Z " />
<path stroke="none" fill="#000000" transform="matrix(0.166667 0 0 0.166667 -30.0333 -49.3333)" d="M 6696.22,6833.23 L 6715.59,6829.11 L 6745.43,6969.52 L 6726.06,6973.63 L 6696.22,6833.23 Z " />
<text x="0" y="0" stroke="none" fill="#000000" transform="matrix(0.166667 0 0 0.166667 1138.48 1208.29)" font-style="normal" font-weight="normal" font-size="200px" font-family="Arial" >
O</text>
<path stroke="none" fill="#000000" transform="matrix(0.166667 0 0 0.166667 -30.0333 -49.3333)" d="M 7034.37,7371.82 L 7021.12,7386.54 L 6903.1,7280.28 L 6916.35,7265.56 L 7034.37,7371.82 Z " />
<path stroke="none" fill="#000000" transform="matrix(0.166667 0 0 0.166667 -30.0333 -49.3333)" d="M 7001.25,7408.61 L 6988,7423.32 L 6869.98,7317.06 L 6883.23,7302.35 L 7001.25,7408.61 Z " />
<path stroke="none" fill="#000000" transform="matrix(0.166667 0 0 0.166667 -30.0333 -49.3333)" d="M 7046.43,6648.29 L 7049.39,6623.33 L 7068.42,6605 L 7233.65,6673.04 L 7235.44,6699.94 L 7208.98,6715.22 L 7046.43,6648.29 Z " />
<path stroke="none" fill="#000000" transform="matrix(0.166667 0 0 0.166667 -30.0333 -49.3333)" d="M 7086.97,6387.8 L 7156.09,6410.01 L 7068.42,6605 L 7049.39,6623.33 L 7042.44,6608.03 L 7086.97,6387.8 Z " />
<path stroke="none" fill="#000000" transform="matrix(0.166667 0 0 0.166667 -30.0333 -49.3333)" d="M 6849.51,6580.29 L 6877.16,6513.16 L 7042.44,6608.03 L 7049.39,6623.33 L 7030.9,6628.57 L 6849.51,6580.29 Z " />
<path stroke="none" fill="#000000" transform="matrix(0.166667 0 0 0.166667 -30.0333 -49.3333)" d="M 6946.67,6822.55 L 6888.39,6779.26 L 7030.9,6628.57 L 7049.39,6623.33 L 7046.43,6648.29 L 6946.67,6822.55 Z " />
<path stroke="none" fill="#000000" transform="matrix(0.166667 0 0 0.166667 -30.0333 -49.3333)" d="M 5655.68,7585.67 L 5635.85,7597.06 L 5636.35,7344.63 L 5656.13,7356.1 L 5655.68,7585.67 Z " />
<path stroke="none" fill="#000000" transform="matrix(0.166667 0 0 0.166667 -30.0333 -49.3333)" d="M 5854.26,7700.85 L 5854.22,7723.71 L 5635.85,7597.06 L 5655.68,7585.67 L 5854.26,7700.85 Z " />
<path stroke="none" fill="#000000" transform="matrix(0.166667 0 0 0.166667 -30.0333 -49.3333)" d="M 6053.3,7586.46 L 6063.19,7592.19 L 6063.17,7603.62 L 5854.22,7723.71 L 5854.26,7700.85 L 6053.3,7586.46 Z " />
<path stroke="none" fill="#000000" transform="matrix(0.166667 0 0 0.166667 -30.0333 -49.3333)" d="M 6053.75,7356.89 L 6073.58,7345.5 L 6073.1,7586.49 L 6063.19,7592.19 L 6053.3,7586.46 L 6053.75,7356.89 Z " />
<path stroke="none" fill="#000000" transform="matrix(0.166667 0 0 0.166667 -30.0333 -49.3333)" d="M 5855.17,7241.71 L 5855.19,7230.28 L 5865.1,7224.58 L 6073.58,7345.5 L 6053.75,7356.89 L 5855.17,7241.71 Z " />
<path stroke="none" fill="#000000" transform="matrix(0.166667 0 0 0.166667 -30.0333 -49.3333)" d="M 5850.11,7296 L 5860.04,7278.87 L 6019.08,7371.11 L 6009.14,7388.24 L 5850.11,7296 Z " />
<path stroke="none" fill="#000000" transform="matrix(0.166667 0 0 0.166667 -30.0333 -49.3333)" d="M 5656.13,7356.1 L 5636.35,7344.63 L 5845.3,7224.54 L 5855.19,7230.28 L 5855.17,7241.71 L 5656.13,7356.1 Z " />
<path stroke="none" fill="#000000" transform="matrix(0.166667 0 0 0.166667 -30.0333 -49.3333)" d="M 6271.69,7701.67 L 6271.64,7724.53 L 6063.17,7603.62 L 6063.19,7592.19 L 6073.1,7586.49 L 6271.69,7701.67 Z " />
<path stroke="none" fill="#000000" transform="matrix(0.166667 0 0 0.166667 -30.0333 -49.3333)" d="M 6276.74,7647.38 L 6266.81,7664.51 L 6107.78,7572.27 L 6117.71,7555.15 L 6276.74,7647.38 Z " />
<text x="0" y="0" stroke="none" fill="#000000" transform="matrix(0.166667 0 0 0.166667 933.911 1128.55)" font-style="normal" font-weight="normal" font-size="200px" font-family="Arial" >
N</text>
<path stroke="none" fill="#000000" transform="matrix(0.166667 0 0 0.166667 -30.0333 -49.3333)" d="M 5845.54,7104.43 L 5865.34,7104.47 L 5865.1,7224.58 L 5855.19,7230.28 L 5845.3,7224.54 L 5845.54,7104.43 Z " />
<path stroke="none" fill="#000000" transform="matrix(0.166667 0 0 0.166667 -30.0333 -49.3333)" d="M 6475.68,7584.43 L 6485.55,7601.6 L 6271.64,7724.53 L 6271.69,7701.67 L 6475.68,7584.43 Z " />
<text x="0" y="0" stroke="none" fill="#000000" transform="matrix(0.166667 0 0 0.166667 975.48 1104.55)" font-style="normal" font-weight="normal" font-size="200px" font-family="Arial" >
H</text>
<path stroke="none" fill="#000000" transform="matrix(0.166667 0 0 0.166667 -30.0333 -49.3333)" d="M 5992.56,6898.81 L 6002.46,6915.96 L 5962.73,6938.9 L 5952.83,6921.75 L 5992.56,6898.81 Z " />
<path stroke="none" fill="#000000" transform="matrix(0.166667 0 0 0.166667 -30.0333 -49.3333)" d="M 7566.85,7643.77 L 7566.85,7666.63 L 7323.25,7807.28 L 7313.35,7790.13 L 7566.85,7643.77 Z " />
<text x="0" y="0" stroke="none" fill="#000000" transform="matrix(0.166667 0 0 0.166667 1259.53 1263.45)" font-style="normal" font-weight="normal" font-size="200px" font-family="Arial" >
O</text>
<path stroke="none" fill="#000000" transform="matrix(0.166667 0 0 0.166667 -30.0333 -49.3333)" d="M 7729.51,7737.68 L 7719.61,7754.83 L 7566.85,7666.63 L 7566.85,7643.77 L 7729.51,7737.68 Z " />
<text x="0" y="0" stroke="none" fill="#000000" transform="matrix(0.166667 0 0 0.166667 1218.11 1191.53)" font-style="normal" font-weight="normal" font-size="200px" font-family="Arial" >
O</text>
<path stroke="none" fill="#000000" transform="matrix(0.166667 0 0 0.166667 -30.0333 -49.3333)" d="M 7531.03,7484.87 L 7550.83,7484.87 L 7550.83,7670.17 L 7531.03,7670.17 L 7531.03,7484.87 Z " />
<path stroke="none" fill="#000000" transform="matrix(0.166667 0 0 0.166667 -30.0333 -49.3333)" d="M 7582.87,7484.87 L 7602.67,7484.87 L 7602.67,7670.17 L 7582.87,7670.17 L 7582.87,7484.87 Z " />
<text x="0" y="0" stroke="none" fill="#000000" transform="matrix(0.166667 0 0 0.166667 1301.96 1239.53)" font-style="normal" font-weight="normal" font-size="200px" font-family="Arial" >
H</text>
<path stroke="none" fill="#000000" transform="matrix(0.166667 0 0 0.166667 -30.0333 -49.3333)" d="M 7951.43,7708.74 L 7961.33,7725.88 L 7911.19,7754.83 L 7901.29,7737.68 L 7951.43,7708.74 Z " />
<path stroke="none" fill="#000000" transform="matrix(0.166667 0 0 0.166667 -30.0333 -49.3333)" d="M 5647.17,6879.8 L 5647.19,6868.37 L 5657.1,6862.67 L 5758.59,6921.53 L 5748.65,6938.66 L 5647.17,6879.8 Z " />
<path stroke="none" fill="#000000" transform="matrix(0.166667 0 0 0.166667 -30.0333 -49.3333)" d="M 5443.18,6997.04 L 5433.31,6979.87 L 5637.3,6862.63 L 5647.19,6868.37 L 5647.17,6879.8 L 5443.18,6997.04 Z " />
<path stroke="none" fill="#000000" transform="matrix(0.166667 0 0 0.166667 -30.0333 -49.3333)" d="M 5637.77,6627.35 L 5657.57,6627.39 L 5657.1,6862.67 L 5647.19,6868.37 L 5637.3,6862.63 L 5637.77,6627.35 Z " />
<path stroke="none" fill="#000000" transform="matrix(0.166667 0 0 0.166667 -30.0333 -49.3333)" d="M 7080.8,5138.44 L 7056.32,5138.44 L 6896.08,4917.89 L 6899.86,4906.25 L 6910.84,4904.51 L 7080.8,5138.44 Z " />
<path stroke="none" fill="#000000" transform="matrix(0.166667 0 0 0.166667 -30.0333 -49.3333)" d="M 7012.71,5132.62 L 6996.69,5144.25 L 6872.12,4972.8 L 6888.14,4961.16 L 7012.71,5132.62 Z " />
<path stroke="none" fill="#000000" transform="matrix(0.166667 0 0 0.166667 -30.0333 -49.3333)" d="M 6903.65,5382.26 L 6896.08,5358.99 L 7056.32,5138.44 L 7080.8,5138.44 L 6903.65,5382.26 Z " />
<path stroke="none" fill="#000000" transform="matrix(0.166667 0 0 0.166667 -30.0333 -49.3333)" d="M 6626.91,5292.35 L 6626.91,5281.94 L 6636.81,5274.74 L 6896.08,5358.99 L 6903.65,5382.26 L 6626.91,5292.35 Z " />
<path stroke="none" fill="#000000" transform="matrix(0.166667 0 0 0.166667 -30.0333 -49.3333)" d="M 6617.01,5002.13 L 6626.91,4994.94 L 6636.81,5002.13 L 6636.81,5274.74 L 6626.91,5281.94 L 6617.01,5274.74 L 6617.01,5002.13 Z " />
<path stroke="none" fill="#000000" transform="matrix(0.166667 0 0 0.166667 -30.0333 -49.3333)" d="M 6892.01,4898.39 L 6899.86,4906.25 L 6896.08,4917.89 L 6636.81,5002.13 L 6626.91,4994.94 L 6626.91,4984.53 L 6892.01,4898.39 Z " />
<path stroke="none" fill="#000000" transform="matrix(0.166667 0 0 0.166667 -30.0333 -49.3333)" d="M 6350.18,5382.26 L 6357.74,5358.99 L 6617.01,5274.74 L 6626.91,5281.94 L 6626.91,5292.35 L 6350.18,5382.26 Z " />
<path stroke="none" fill="#000000" transform="matrix(0.166667 0 0 0.166667 -30.0333 -49.3333)" d="M 6180.22,5148.34 L 6185.26,5138.44 L 6197.5,5138.44 L 6357.74,5358.99 L 6350.18,5382.26 L 6180.22,5148.34 Z " />
<path stroke="none" fill="#000000" transform="matrix(0.166667 0 0 0.166667 -30.0333 -49.3333)" d="M 6241.11,5144.25 L 6257.13,5132.62 L 6381.7,5304.07 L 6365.68,5315.71 L 6241.11,5144.25 Z " />
<path stroke="none" fill="#000000" transform="matrix(0.166667 0 0 0.166667 -30.0333 -49.3333)" d="M 6350.18,4894.61 L 6357.74,4917.89 L 6197.5,5138.44 L 6185.26,5138.44 L 6180.22,5128.54 L 6350.18,4894.61 Z " />
<path stroke="none" fill="#000000" transform="matrix(0.166667 0 0 0.166667 -30.0333 -49.3333)" d="M 6626.91,4984.53 L 6626.91,4994.94 L 6617.01,5002.13 L 6357.74,4917.89 L 6350.18,4894.61 L 6626.91,4984.53 Z " />
<text x="0" y="0" stroke="none" fill="#000000" transform="matrix(0.166667 0 0 0.166667 1122.73 735.882)" font-style="normal" font-weight="normal" font-size="200px" font-family="Arial" >
NH</text>
<text x="0" y="0" stroke="none" fill="#000000" transform="matrix(0.166667 0 0 0.166667 1170.87 743.216)" font-style="normal" font-weight="normal" font-size="150px" font-family="Arial" >
2</text>
<path stroke="none" fill="#000000" transform="matrix(0.166667 0 0 0.166667 -30.0333 -49.3333)" d="M 6940.7,4748.54 L 6959.53,4754.66 L 6910.84,4904.51 L 6899.86,4906.25 L 6892.01,4898.39 L 6940.7,4748.54 Z " />
<text x="0" y="0" stroke="none" fill="#000000" transform="matrix(0.166667 0 0 0.166667 1062.45 891.823)" font-style="normal" font-weight="normal" font-size="200px" font-family="Arial" >
H</text>
<path stroke="none" fill="#000000" transform="matrix(0.166667 0 0 0.166667 -30.0333 -49.3333)" d="M 6657.06,5474.3 L 6596.76,5474.3 L 6599.58,5454.5 L 6654.25,5454.5 L 6657.06,5474.3 Z " />
<path stroke="none" fill="#000000" transform="matrix(0.166667 0 0 0.166667 -30.0333 -49.3333)" d="M 6648.34,5412.97 L 6605.48,5412.97 L 6608.29,5393.17 L 6645.53,5393.17 L 6648.34,5412.97 Z " />
<path stroke="none" fill="#000000" transform="matrix(0.166667 0 0 0.166667 -30.0333 -49.3333)" d="M 6639.63,5351.63 L 6614.2,5351.63 L 6617.01,5331.83 L 6636.81,5331.83 L 6639.63,5351.63 Z " />
<text x="0" y="0" stroke="none" fill="#000000" transform="matrix(0.166667 0 0 0.166667 1062.45 748.323)" font-style="normal" font-weight="normal" font-size="200px" font-family="Arial" >
H</text>
<path stroke="none" fill="#000000" transform="matrix(0.166667 0 0 0.166667 -30.0333 -49.3333)" d="M 6596.76,4816.9 L 6657.06,4816.9 L 6653.93,4836.7 L 6599.89,4836.7 L 6596.76,4816.9 Z " />
<path stroke="none" fill="#000000" transform="matrix(0.166667 0 0 0.166667 -30.0333 -49.3333)" d="M 6605.32,4871.11 L 6648.5,4871.11 L 6645.37,4890.91 L 6608.45,4890.91 L 6605.32,4871.11 Z " />
<path stroke="none" fill="#000000" transform="matrix(0.166667 0 0 0.166667 -30.0333 -49.3333)" d="M 6613.88,4925.33 L 6639.94,4925.33 L 6636.81,4945.13 L 6617.01,4945.13 L 6613.88,4925.33 Z " />
<text x="0" y="0" stroke="none" fill="#000000" transform="matrix(0.166667 0 0 0.166667 899.239 820.073)" font-style="normal" font-weight="normal" font-size="200px" font-family="Arial" >
BnO</text>
<path stroke="none" fill="#000000" transform="matrix(0.166667 0 0 0.166667 -30.0333 -49.3333)" d="M 5998.44,5148.34 L 5998.44,5128.54 L 6180.22,5128.54 L 6185.26,5138.44 L 6180.22,5148.34 L 5998.44,5148.34 Z " />
<text x="0" y="0" stroke="none" fill="#000000" transform="matrix(0.166667 0 0 0.166667 1207.04 810.311)" font-style="normal" font-weight="normal" font-size="200px" font-family="Arial" >
H</text>
<text x="0" y="0" stroke="none" fill="#000000" transform="matrix(0.166667 0 0 0.166667 1231.11 817.644)" font-style="normal" font-weight="normal" font-size="150px" font-family="Arial" >
3</text>
<text x="0" y="0" stroke="none" fill="#000000" transform="matrix(0.166667 0 0 0.166667 1245.01 810.311)" font-style="normal" font-weight="normal" font-size="200px" font-family="Arial" >
C</text>
<text x="0" y="0" stroke="none" fill="#000000" transform="matrix(0.166667 0 0 0.166667 1294 810.311)" font-style="normal" font-weight="normal" font-size="200px" font-family="Arial" >
Br</text>
<path stroke="none" fill="#000000" transform="matrix(0.166667 0 0 0.166667 -30.0333 -49.3333)" d="M 7927.42,5069.97 L 7927.42,5089.77 L 7818.23,5089.77 L 7818.23,5069.97 L 7927.42,5069.97 Z " />
<text x="0" y="0" stroke="none" fill="#000000" transform="matrix(0.166667 0 0 0.166667 58.282 451.491)" font-style="normal" font-weight="normal" font-size="200px" font-family="Fira Code Retina" >
Dihedral</text>
<text x="0" y="0" stroke="none" fill="#000000" transform="matrix(0.166667 0 0 0.166667 89.0512 492.825)" font-style="normal" font-weight="normal" font-size="200px" font-family="Fira Code Retina" >
Embed</text>
<path stroke="none" fill="#000000" transform="matrix(0.166667 0 0 0.166667 -30.0333 -49.3333)" d="M 2301.99,3636.56 L 2282.19,3648 L 2282.19,3348.56 L 2301.99,3360 L 2301.99,3636.56 Z " />
<path stroke="none" fill="#000000" transform="matrix(0.166667 0 0 0.166667 -30.0333 -49.3333)" d="M 2353.83,3612.35 L 2334.03,3612.35 L 2334.03,3384.21 L 2353.83,3384.21 L 2353.83,3612.35 Z " />
<path stroke="none" fill="#000000" transform="matrix(0.166667 0 0 0.166667 -30.0333 -49.3333)" d="M 2541.5,3774.85 L 2541.5,3797.71 L 2282.19,3648 L 2301.99,3636.56 L 2541.5,3774.85 Z " />
<path stroke="none" fill="#000000" transform="matrix(0.166667 0 0 0.166667 -30.0333 -49.3333)" d="M 2781.02,3636.56 L 2790.92,3642.28 L 2790.92,3653.71 L 2541.5,3797.71 L 2541.5,3774.85 L 2781.02,3636.56 Z " />
<path stroke="none" fill="#000000" transform="matrix(0.166667 0 0 0.166667 -30.0333 -49.3333)" d="M 2734.13,3603.78 L 2744.03,3620.92 L 2546.45,3734.99 L 2536.55,3717.85 L 2734.13,3603.78 Z " />
<path stroke="none" fill="#000000" transform="matrix(0.166667 0 0 0.166667 -30.0333 -49.3333)" d="M 2781.02,3360 L 2790.92,3354.28 L 2800.82,3360 L 2800.82,3636.56 L 2790.92,3642.28 L 2781.02,3636.56 L 2781.02,3360 Z " />
<path stroke="none" fill="#000000" transform="matrix(0.166667 0 0 0.166667 -30.0333 -49.3333)" d="M 2541.5,3221.71 L 2541.5,3198.85 L 2790.92,3342.85 L 2790.92,3354.28 L 2781.02,3360 L 2541.5,3221.71 Z " />
<path stroke="none" fill="#000000" transform="matrix(0.166667 0 0 0.166667 -30.0333 -49.3333)" d="M 2536.55,3278.71 L 2546.45,3261.57 L 2744.03,3375.64 L 2734.13,3392.78 L 2536.55,3278.71 Z " />
<path stroke="none" fill="#000000" transform="matrix(0.166667 0 0 0.166667 -30.0333 -49.3333)" d="M 2301.99,3360 L 2282.19,3348.56 L 2541.5,3198.85 L 2541.5,3221.71 L 2301.99,3360 Z " />
<path stroke="none" fill="#000000" transform="matrix(0.166667 0 0 0.166667 -30.0333 -49.3333)" d="M 3030.13,3768.96 L 3050.53,3803.6 L 2790.92,3653.71 L 2790.92,3642.28 L 2800.82,3636.56 L 3030.13,3768.96 Z " />
<path stroke="none" fill="#000000" transform="matrix(0.166667 0 0 0.166667 -30.0333 -49.3333)" d="M 3269.65,3630.68 L 3309.85,3653.89 L 3050.53,3803.6 L 3030.13,3768.96 L 3269.65,3630.68 Z " />
<path stroke="none" fill="#000000" transform="matrix(0.166667 0 0 0.166667 -30.0333 -49.3333)" d="M 3222.76,3597.89 L 3232.66,3615.04 L 3045.28,3723.22 L 3035.38,3706.07 L 3222.76,3597.89 Z " />
<path stroke="none" fill="#000000" transform="matrix(0.166667 0 0 0.166667 -30.0333 -49.3333)" d="M 3269.65,3365.89 L 3289.75,3354.28 L 3309.85,3365.89 L 3309.85,3653.89 L 3269.65,3630.68 L 3269.65,3365.89 Z " />
<path stroke="none" fill="#000000" transform="matrix(0.166667 0 0 0.166667 -30.0333 -49.3333)" d="M 3030.13,3227.6 L 3040.33,3210.28 L 3050.23,3192.79 L 3289.75,3331.07 L 3289.75,3354.28 L 3269.65,3365.89 L 3030.13,3227.6 Z " />
<path stroke="none" fill="#000000" transform="matrix(0.166667 0 0 0.166667 -30.0333 -49.3333)" d="M 3035.38,3290.49 L 3045.28,3273.34 L 3232.66,3381.53 L 3222.76,3398.67 L 3035.38,3290.49 Z " />
<path stroke="none" fill="#000000" transform="matrix(0.166667 0 0 0.166667 -30.0333 -49.3333)" d="M 2800.82,3360 L 2790.92,3354.28 L 2790.92,3342.85 L 3030.44,3204.56 L 3040.33,3210.28 L 3030.13,3227.6 L 2800.82,3360 Z " />
<path stroke="none" fill="#000000" transform="matrix(0.166667 0 0 0.166667 -30.0333 -49.3333)" d="M 3030.44,2928 L 3040.33,2922.28 L 3050.23,2928 L 3050.23,3192.79 L 3040.33,3210.28 L 3030.44,3204.56 L 3030.44,2928 Z " />
<path stroke="none" fill="#000000" transform="matrix(0.166667 0 0 0.166667 -30.0333 -49.3333)" d="M 3279.85,2772.56 L 3289.75,2778.28 L 3289.75,2789.71 L 3050.23,2928 L 3040.33,2922.28 L 3040.33,2910.85 L 3279.85,2772.56 Z " />
<path stroke="none" fill="#000000" transform="matrix(0.166667 0 0 0.166667 -30.0333 -49.3333)" d="M 3232.96,2739.78 L 3242.86,2756.92 L 3045.28,2870.99 L 3035.38,2853.85 L 3232.96,2739.78 Z " />
<path stroke="none" fill="#000000" transform="matrix(0.166667 0 0 0.166667 -30.0333 -49.3333)" d="M 3279.85,2496 L 3299.65,2484.57 L 3299.65,2772.56 L 3289.75,2778.28 L 3279.85,2772.56 L 3279.85,2496 Z " />
<path stroke="none" fill="#000000" transform="matrix(0.166667 0 0 0.166667 -30.0333 -49.3333)" d="M 3040.33,2357.71 L 3040.33,2334.85 L 3299.65,2484.57 L 3279.85,2496 L 3040.33,2357.71 Z " />
<path stroke="none" fill="#000000" transform="matrix(0.166667 0 0 0.166667 -30.0333 -49.3333)" d="M 3035.38,2414.71 L 3045.28,2397.57 L 3242.86,2511.64 L 3232.96,2528.78 L 3035.38,2414.71 Z " />
<path stroke="none" fill="#000000" transform="matrix(0.166667 0 0 0.166667 -30.0333 -49.3333)" d="M 2800.82,2496 L 2790.92,2490.28 L 2790.92,2478.85 L 3040.33,2334.85 L 3040.33,2357.71 L 2800.82,2496 Z " />
<path stroke="none" fill="#000000" transform="matrix(0.166667 0 0 0.166667 -30.0333 -49.3333)" d="M 2800.82,2772.56 L 2790.92,2778.28 L 2781.02,2772.56 L 2781.02,2496 L 2790.92,2490.28 L 2800.82,2496 L 2800.82,2772.56 Z " />
<path stroke="none" fill="#000000" transform="matrix(0.166667 0 0 0.166667 -30.0333 -49.3333)" d="M 2852.66,2748.35 L 2832.86,2748.35 L 2832.86,2520.21 L 2852.66,2520.21 L 2852.66,2748.35 Z " />
<path stroke="none" fill="#000000" transform="matrix(0.166667 0 0 0.166667 -30.0333 -49.3333)" d="M 3040.33,2910.85 L 3040.33,2922.28 L 3030.44,2928 L 2790.92,2789.71 L 2790.92,2778.28 L 2800.82,2772.56 L 3040.33,2910.85 Z " />
<path stroke="none" fill="#000000" transform="matrix(0.166667 0 0 0.166667 -30.0333 -49.3333)" d="M 2551.7,2363.6 L 2531.3,2328.96 L 2790.92,2478.85 L 2790.92,2490.28 L 2781.02,2496 L 2551.7,2363.6 Z " />
<path stroke="none" fill="#000000" transform="matrix(0.166667 0 0 0.166667 -30.0333 -49.3333)" d="M 2312.19,2501.89 L 2271.99,2478.68 L 2531.3,2328.96 L 2551.7,2363.6 L 2312.19,2501.89 Z " />
<path stroke="none" fill="#000000" transform="matrix(0.166667 0 0 0.166667 -30.0333 -49.3333)" d="M 2359.08,2534.67 L 2349.18,2517.53 L 2536.55,2409.34 L 2546.45,2426.49 L 2359.08,2534.67 Z " />
<path stroke="none" fill="#000000" transform="matrix(0.166667 0 0 0.166667 -30.0333 -49.3333)" d="M 2312.19,2766.68 L 2271.99,2789.89 L 2271.99,2478.68 L 2312.19,2501.89 L 2312.19,2766.68 Z " />
<path stroke="none" fill="#000000" transform="matrix(0.166667 0 0 0.166667 -30.0333 -49.3333)" d="M 2551.7,2904.96 L 2531.3,2939.6 L 2271.99,2789.89 L 2312.19,2766.68 L 2551.7,2904.96 Z " />
<path stroke="none" fill="#000000" transform="matrix(0.166667 0 0 0.166667 -30.0333 -49.3333)" d="M 2546.45,2842.07 L 2536.55,2859.22 L 2349.18,2751.04 L 2359.08,2733.89 L 2546.45,2842.07 Z " />
<path stroke="none" fill="#000000" transform="matrix(0.166667 0 0 0.166667 -30.0333 -49.3333)" d="M 2781.02,2772.56 L 2790.92,2778.28 L 2790.92,2789.71 L 2531.3,2939.6 L 2551.7,2904.96 L 2781.02,2772.56 Z " />
<text x="0" y="0" stroke="none" fill="#000000" transform="matrix(0.166667 0 0 0.166667 546.828 450.713)" font-style="normal" font-weight="normal" font-size="200px" font-family="Arial" >
OH</text>
<path stroke="none" fill="#000000" transform="matrix(0.166667 0 0 0.166667 -30.0333 -49.3333)" d="M 3458.64,2864.36 L 3448.74,2881.51 L 3289.75,2789.71 L 3289.75,2778.28 L 3299.65,2772.56 L 3458.64,2864.36 Z " />
<text x="0" y="0" stroke="none" fill="#000000" transform="matrix(0.166667 0 0 0.166667 546.828 498.713)" font-style="normal" font-weight="normal" font-size="200px" font-family="Arial" >
OH</text>
<path stroke="none" fill="#000000" transform="matrix(0.166667 0 0 0.166667 -30.0333 -49.3333)" d="M 3436.57,3246.3 L 3456.67,3281.12 L 3309.85,3365.89 L 3289.75,3354.28 L 3289.75,3331.07 L 3436.57,3246.3 Z " />
<path stroke="none" fill="#000000" transform="matrix(0.166667 0 0 0.166667 -30.0333 -49.3333)" d="M 6027.81,3075.97 L 6062.45,3055.57 L 5907.34,3324.22 L 5895.91,3304.42 L 6027.81,3075.97 Z " />
<path stroke="none" fill="#000000" transform="matrix(0.166667 0 0 0.166667 -30.0333 -49.3333)" d="M 5976.9,3060.82 L 5994.05,3070.72 L 5880.37,3267.61 L 5863.23,3257.71 L 5976.9,3060.82 Z " />
<path stroke="none" fill="#000000" transform="matrix(0.166667 0 0 0.166667 -30.0333 -49.3333)" d="M 5890.02,2837.32 L 5913.23,2797.12 L 6062.45,3055.57 L 6027.81,3075.97 L 5890.02,2837.32 Z " />
<path stroke="none" fill="#000000" transform="matrix(0.166667 0 0 0.166667 -30.0333 -49.3333)" d="M 5626.23,2837.32 L 5614.63,2817.22 L 5626.23,2797.12 L 5913.23,2797.12 L 5890.02,2837.32 L 5626.23,2837.32 Z " />
<path stroke="none" fill="#000000" transform="matrix(0.166667 0 0 0.166667 -30.0333 -49.3333)" d="M 5650.34,2888.98 L 5650.34,2869.18 L 5865.91,2869.18 L 5865.91,2888.98 L 5650.34,2888.98 Z " />
<path stroke="none" fill="#000000" transform="matrix(0.166667 0 0 0.166667 -30.0333 -49.3333)" d="M 5488.45,3075.97 L 5471.13,3065.77 L 5453.63,3055.87 L 5591.42,2817.22 L 5614.63,2817.22 L 5626.23,2837.32 L 5488.45,3075.97 Z " />
<path stroke="none" fill="#000000" transform="matrix(0.166667 0 0 0.166667 -30.0333 -49.3333)" d="M 5620.34,3304.42 L 5614.63,3314.32 L 5603.2,3314.32 L 5465.41,3075.67 L 5471.13,3065.77 L 5488.45,3075.97 L 5620.34,3304.42 Z " />
<path stroke="none" fill="#000000" transform="matrix(0.166667 0 0 0.166667 -30.0333 -49.3333)" d="M 5653.03,3257.71 L 5635.88,3267.61 L 5522.21,3070.72 L 5539.35,3060.82 L 5653.03,3257.71 Z " />
<path stroke="none" fill="#000000" transform="matrix(0.166667 0 0 0.166667 -30.0333 -49.3333)" d="M 5895.91,3304.42 L 5907.34,3324.22 L 5620.34,3324.22 L 5614.63,3314.32 L 5620.34,3304.42 L 5895.91,3304.42 Z " />
<path stroke="none" fill="#000000" transform="matrix(0.166667 0 0 0.166667 -30.0333 -49.3333)" d="M 5201.62,3075.67 L 5184.13,3065.77 L 5189.84,3055.87 L 5453.63,3055.87 L 5471.13,3065.77 L 5465.41,3075.67 L 5201.62,3075.67 Z " />
<path stroke="none" fill="#000000" transform="matrix(0.166667 0 0 0.166667 -30.0333 -49.3333)" d="M 5034.91,2827.12 L 5040.63,2817.22 L 5052.06,2817.22 L 5189.84,3055.87 L 5184.13,3065.77 L 5166.81,3055.57 L 5034.91,2827.12 Z " />
<path stroke="none" fill="#000000" transform="matrix(0.166667 0 0 0.166667 -30.0333 -49.3333)" d="M 5002.23,2873.83 L 5019.37,2863.93 L 5133.05,3060.82 L 5115.9,3070.72 L 5002.23,2873.83 Z " />
<path stroke="none" fill="#000000" transform="matrix(0.166667 0 0 0.166667 -30.0333 -49.3333)" d="M 4759.34,2827.12 L 4747.91,2807.32 L 5034.91,2807.32 L 5040.63,2817.22 L 5034.91,2827.12 L 4759.34,2827.12 Z " />
<path stroke="none" fill="#000000" transform="matrix(0.166667 0 0 0.166667 -30.0333 -49.3333)" d="M 4627.45,3055.57 L 4592.81,3075.97 L 4747.91,2807.32 L 4759.34,2827.12 L 4627.45,3055.57 Z " />
<path stroke="none" fill="#000000" transform="matrix(0.166667 0 0 0.166667 -30.0333 -49.3333)" d="M 4678.35,3070.72 L 4661.21,3060.82 L 4774.88,2863.93 L 4792.03,2873.83 L 4678.35,3070.72 Z " />
<path stroke="none" fill="#000000" transform="matrix(0.166667 0 0 0.166667 -30.0333 -49.3333)" d="M 4765.23,3294.22 L 4742.02,3334.42 L 4592.81,3075.97 L 4627.45,3055.57 L 4765.23,3294.22 Z " />
<path stroke="none" fill="#000000" transform="matrix(0.166667 0 0 0.166667 -30.0333 -49.3333)" d="M 5029.02,3294.22 L 5040.63,3314.32 L 5029.02,3334.42 L 4742.02,3334.42 L 4765.23,3294.22 L 5029.02,3294.22 Z " />
<path stroke="none" fill="#000000" transform="matrix(0.166667 0 0 0.166667 -30.0333 -49.3333)" d="M 5004.91,3242.56 L 5004.91,3262.36 L 4789.34,3262.36 L 4789.34,3242.56 L 5004.91,3242.56 Z " />
<path stroke="none" fill="#000000" transform="matrix(0.166667 0 0 0.166667 -30.0333 -49.3333)" d="M 5166.81,3055.57 L 5184.13,3065.77 L 5201.62,3075.67 L 5063.84,3314.32 L 5040.63,3314.32 L 5029.02,3294.22 L 5166.81,3055.57 Z " />
<path stroke="none" fill="#000000" transform="matrix(0.166667 0 0 0.166667 -30.0333 -49.3333)" d="M 5453.63,2578.57 L 5488.62,2558.77 L 5626.23,2797.12 L 5614.63,2817.22 L 5591.42,2817.22 L 5453.63,2578.57 Z " />
<path stroke="none" fill="#000000" transform="matrix(0.166667 0 0 0.166667 -30.0333 -49.3333)" d="M 5189.84,2578.57 L 5178.41,2558.77 L 5488.62,2558.77 L 5453.63,2578.57 L 5189.84,2578.57 Z " />
<path stroke="none" fill="#000000" transform="matrix(0.166667 0 0 0.166667 -30.0333 -49.3333)" d="M 5052.06,2817.22 L 5040.63,2817.22 L 5034.91,2807.32 L 5178.41,2558.77 L 5189.84,2578.57 L 5052.06,2817.22 Z " />
<path stroke="none" fill="#000000" transform="matrix(0.166667 0 0 0.166667 -30.0333 -49.3333)" d="M 5479.2,3568.69 L 5462.05,3558.79 L 5603.2,3314.32 L 5614.63,3314.32 L 5620.34,3324.22 L 5479.2,3568.69 Z " />
<path stroke="none" fill="#000000" transform="matrix(0.166667 0 0 0.166667 -30.0333 -49.3333)" d="M 5202.03,3553.69 L 5167.22,3573.79 L 5029.02,3334.42 L 5040.63,3314.32 L 5063.84,3314.32 L 5202.03,3553.69 Z " />
<path stroke="none" fill="#000000" transform="matrix(0.166667 0 0 0.166667 -30.0333 -49.3333)" d="M 8379.5,1968.53 L 256.806,1968.53 L 256.806,1948.53 L 8379.5,1948.53 Z " />
<path stroke="none" fill="#000000" transform="matrix(0.166667 0 0 0.166667 -30.0333 -49.3333)" d="M 8379.5,4184.03 L 256.806,4184.03 L 256.806,4164.03 L 8379.5,4164.03 Z " />
<path stroke="none" fill="#000000" transform="matrix(0.166667 0 0 0.166667 -30.0333 -49.3333)" d="M 8379.5,6027.37 L 256.806,6027.37 L 256.806,6007.37 L 8379.5,6007.37 Z " />
<text x="0" y="0" stroke="none" fill="#000000" transform="matrix(0.166667 0 0 0.166667 58.282 1129.32)" font-style="normal" font-weight="normal" font-size="200px" font-family="Fira Code Retina" >
Cyclical</text>
<text x="0" y="0" stroke="none" fill="#000000" transform="matrix(0.166667 0 0 0.166667 89.0512 1170.65)" font-style="normal" font-weight="normal" font-size="200px" font-family="Fira Code Retina" >
Embed</text>
<text x="0" y="0" stroke="none" fill="#000000" transform="matrix(0.166667 0 0 0.166667 1171.42 490.173)" font-style="normal" font-weight="normal" font-size="200px" font-family="Arial" >
N</text>
<path stroke="none" fill="#000000" transform="matrix(0.166667 0 0 0.166667 -30.0333 -49.3333)" d="M 6974.95,3492.96 L 6964.99,3515.32 L 6814.3,3254.31 L 6838.64,3256.87 L 6974.95,3492.96 Z " />
<path stroke="none" fill="#000000" transform="matrix(0.166667 0 0 0.166667 -30.0333 -49.3333)" d="M 7004.52,3440.85 L 6987.37,3450.75 L 6881.4,3267.21 L 6898.55,3257.31 L 7004.52,3440.85 Z " />
<path stroke="none" fill="#000000" transform="matrix(0.166667 0 0 0.166667 -30.0333 -49.3333)" d="M 7241.6,3436.28 L 7259.79,3452.66 L 6964.99,3515.32 L 6974.95,3492.96 L 7241.6,3436.28 Z " />
<path stroke="none" fill="#000000" transform="matrix(0.166667 0 0 0.166667 -30.0333 -49.3333)" d="M 7259.51,3265.95 L 7279.2,3268.02 L 7259.79,3452.66 L 7241.6,3436.28 L 7259.51,3265.95 Z " />
<path stroke="none" fill="#000000" transform="matrix(0.166667 0 0 0.166667 -30.0333 -49.3333)" d="M 7021.05,3054.28 L 7015.97,3030.34 L 7185.59,3105.86 L 7177.54,3123.95 L 7021.05,3054.28 Z " />
<path stroke="none" fill="#000000" transform="matrix(0.166667 0 0 0.166667 -30.0333 -49.3333)" d="M 6838.64,3256.87 L 6814.3,3254.31 L 7015.97,3030.34 L 7021.05,3054.28 L 6838.64,3256.87 Z " />
<path stroke="none" fill="#000000" transform="matrix(0.166667 0 0 0.166667 -30.0333 -49.3333)" d="M 7583.33,2972.88 L 7603.81,2972.49 L 7604.77,2983.37 L 7382.4,3111.76 L 7372.5,3094.61 L 7583.33,2972.88 Z " />
<path stroke="none" fill="#000000" transform="matrix(0.166667 0 0 0.166667 -30.0333 -49.3333)" d="M 7812.55,3037.82 L 7814.46,3059.58 L 7604.77,2983.37 L 7603.81,2972.49 L 7624.74,2969.56 L 7812.55,3037.82 Z " />
<path stroke="none" fill="#000000" transform="matrix(0.166667 0 0 0.166667 -30.0333 -49.3333)" d="M 8053.11,2898.93 L 8071,2911.46 L 7814.46,3059.58 L 7812.55,3037.82 L 8053.11,2898.93 Z " />
<path stroke="none" fill="#000000" transform="matrix(0.166667 0 0 0.166667 -30.0333 -49.3333)" d="M 8010.43,2863.92 L 8020.33,2881.07 L 7813.48,3000.49 L 7803.58,2983.35 L 8010.43,2863.92 Z " />
<path stroke="none" fill="#000000" transform="matrix(0.166667 0 0 0.166667 -30.0333 -49.3333)" d="M 8087.91,2702.15 L 8113.91,2668.83 L 8071,2911.46 L 8053.11,2898.93 L 8087.91,2702.15 Z " />
<path stroke="none" fill="#000000" transform="matrix(0.166667 0 0 0.166667 -30.0333 -49.3333)" d="M 7893.15,2631.38 L 7889.28,2587.19 L 8113.91,2668.83 L 8087.91,2702.15 L 7893.15,2631.38 Z " />
<path stroke="none" fill="#000000" transform="matrix(0.166667 0 0 0.166667 -30.0333 -49.3333)" d="M 7893.59,2684.2 L 7900.35,2665.59 L 8036.77,2715.17 L 8030.01,2733.78 L 7893.59,2684.2 Z " />
<path stroke="none" fill="#000000" transform="matrix(0.166667 0 0 0.166667 -30.0333 -49.3333)" d="M 7660.83,2765.51 L 7642.66,2752.78 L 7640.73,2730.69 L 7889.28,2587.19 L 7893.15,2631.38 L 7660.83,2765.51 Z " />
<path stroke="none" fill="#000000" transform="matrix(0.166667 0 0 0.166667 -30.0333 -49.3333)" d="M 7624.74,2969.56 L 7603.81,2972.49 L 7583.33,2972.88 L 7619.93,2765.91 L 7642.66,2752.78 L 7660.83,2765.51 L 7624.74,2969.56 Z " />
<path stroke="none" fill="#000000" transform="matrix(0.166667 0 0 0.166667 -30.0333 -49.3333)" d="M 7681.08,2935.23 L 7661.58,2931.78 L 7686.86,2788.85 L 7706.36,2792.3 L 7681.08,2935.23 Z " />
<path stroke="none" fill="#000000" transform="matrix(0.166667 0 0 0.166667 -30.0333 -49.3333)" d="M 7433.45,2698.14 L 7432.97,2676.58 L 7444.66,2659.44 L 7640.73,2730.69 L 7642.66,2752.78 L 7619.93,2765.91 L 7433.45,2698.14 Z " />
<path stroke="none" fill="#000000" transform="matrix(0.166667 0 0 0.166667 -30.0333 -49.3333)" d="M 7315.08,2941.07 L 7262.86,2910.92 L 7413.16,2688.27 L 7432.97,2676.58 L 7433.45,2698.14 L 7315.08,2941.07 Z " />
<path stroke="none" fill="#000000" transform="matrix(0.166667 0 0 0.166667 -30.0333 -49.3333)" d="M 7177.33,2709.46 L 7176.68,2649.16 L 7422.53,2665.97 L 7432.97,2676.58 L 7413.16,2688.27 L 7177.33,2709.46 Z " />
<path stroke="none" fill="#000000" transform="matrix(0.166667 0 0 0.166667 -30.0333 -49.3333)" d="M 7409.36,2416.05 L 7469.64,2417.57 L 7444.66,2659.44 L 7432.97,2676.58 L 7422.53,2665.97 L 7409.36,2416.05 Z " />
<text x="0" y="0" stroke="none" fill="#000000" transform="matrix(0.166667 0 0 0.166667 1116.77 423.93)" font-style="normal" font-weight="normal" font-size="200px" font-family="Arial" >
O</text>
<path stroke="none" fill="#000000" transform="matrix(0.166667 0 0 0.166667 -30.0333 -49.3333)" d="M 6947.57,2880.4 L 6966.94,2876.29 L 7006.83,3063.98 L 6987.46,3068.09 L 6947.57,2880.4 Z " />
<path stroke="none" fill="#000000" transform="matrix(0.166667 0 0 0.166667 -30.0333 -49.3333)" d="M 6998.1,2869.66 L 7017.47,2865.55 L 7057.36,3053.23 L 7037.99,3057.35 L 6998.1,2869.66 Z " />
<text x="0" y="0" stroke="none" fill="#000000" transform="matrix(0.166667 0 0 0.166667 1200.96 569.751)" font-style="normal" font-weight="normal" font-size="200px" font-family="Arial" >
O</text>
<path stroke="none" fill="#000000" transform="matrix(0.166667 0 0 0.166667 -30.0333 -49.3333)" d="M 7414.6,3543.97 L 7401.35,3558.68 L 7247.41,3420.07 L 7260.66,3405.36 L 7414.6,3543.97 Z " />
<path stroke="none" fill="#000000" transform="matrix(0.166667 0 0 0.166667 -30.0333 -49.3333)" d="M 7380.03,3582.36 L 7366.78,3597.07 L 7212.84,3458.46 L 7226.09,3443.75 L 7380.03,3582.36 Z " />
<path stroke="none" fill="#8ce2c6" transform="matrix(0.166667 0 0 0.166667 -30.0333 -49.3333)" d="M 2787.93,9516.13 A 102.2,102.2 0 1 0 2992.33,9516.13A 102.2,102.2 0 1 0 2787.93,9516.13Z " />
<path stroke="none" fill="#8ce2c6" transform="matrix(0.166667 0 0 0.166667 -30.0333 -49.3333)" d="M 2787.93,8943.13 A 102.2,102.2 0 1 0 2992.33,8943.13A 102.2,102.2 0 1 0 2787.93,8943.13Z " />
<path stroke="none" fill="#000000" transform="matrix(0.166667 0 0 0.166667 -30.0333 -49.3333)" d="M 2630.83,9377.84 L 2650.63,9366.41 L 2895.08,9507.55 L 2885.18,9524.7 L 2630.83,9377.84 Z " />
<path stroke="none" fill="#000000" transform="matrix(0.166667 0 0 0.166667 -30.0333 -49.3333)" d="M 2687.62,9350.77 L 2697.52,9333.62 L 2921,9462.66 L 2911.1,9479.81 L 2687.62,9350.77 Z " />
<path stroke="none" fill="#000000" transform="matrix(0.166667 0 0 0.166667 -30.0333 -49.3333)" d="M 2630.83,9079.41 L 2650.63,9090.84 L 2650.63,9366.41 L 2630.83,9377.84 L 2630.83,9079.41 Z " />
<path stroke="none" fill="#000000" transform="matrix(0.166667 0 0 0.166667 -30.0333 -49.3333)" d="M 2879.43,8936.01 L 2899.23,8947.44 L 2650.63,9090.84 L 2630.83,9079.41 L 2879.43,8936.01 Z " />
<path stroke="none" fill="#000000" transform="matrix(0.166667 0 0 0.166667 -30.0333 -49.3333)" d="M 2910.2,8977.9 L 2920.09,8995.05 L 2697.34,9123.54 L 2687.44,9106.39 L 2910.2,8977.9 Z " />
<path stroke="none" fill="#000000" transform="matrix(0.166667 0 0 0.166667 -30.0333 -49.3333)" d="M 2879.43,8653.73 L 2899.23,8653.73 L 2899.23,8947.44 L 2879.43,8936.01 L 2879.43,8653.73 Z " />
<path stroke="none" fill="#000000" transform="matrix(0.166667 0 0 0.166667 -30.0333 -49.3333)" d="M 8379.5,8263.37 L 256.806,8263.37 L 256.806,8243.37 L 8379.5,8243.37 Z " />
<text x="0" y="0" stroke="none" fill="#000000" transform="matrix(0.166667 0 0 0.166667 27.5128 1475.99)" font-style="normal" font-weight="normal" font-size="200px" font-family="Fira Code Retina" >
Chelotropic</text>
<text x="0" y="0" stroke="none" fill="#000000" transform="matrix(0.166667 0 0 0.166667 89.0512 1517.32)" font-style="normal" font-weight="normal" font-size="200px" font-family="Fira Code Retina" >
Embed</text>
<text x="0" y="0" stroke="none" fill="#000000" transform="matrix(0.166667 0 0 0.166667 508.182 1500.93)" font-style="normal" font-weight="normal" font-size="200px" font-family="Arial" >
S</text>
<text x="0" y="0" stroke="none" fill="#000000" transform="matrix(0.166667 0 0 0.166667 530.265 1459.36)" font-style="normal" font-weight="normal" font-size="200px" font-family="Arial" >
O</text>
<path stroke="none" fill="#000000" transform="matrix(0.166667 0 0 0.166667 -30.0333 -49.3333)" d="M 3374.85,9066.85 L 3392,9076.75 L 3353.07,9144.17 L 3335.92,9134.27 L 3374.85,9066.85 Z " />
<path stroke="none" fill="#000000" transform="matrix(0.166667 0 0 0.166667 -30.0333 -49.3333)" d="M 3419.75,9092.77 L 3436.89,9102.67 L 3397.97,9170.09 L 3380.82,9160.19 L 3419.75,9092.77 Z " />
<text x="0" y="0" stroke="none" fill="#000000" transform="matrix(0.166667 0 0 0.166667 530.265 1542.5)" font-style="normal" font-weight="normal" font-size="200px" font-family="Arial" >
O</text>
<path stroke="none" fill="#000000" transform="matrix(0.166667 0 0 0.166667 -30.0333 -49.3333)" d="M 3399.21,9382.9 L 3382.06,9392.8 L 3344.29,9327.38 L 3361.43,9317.48 L 3399.21,9382.9 Z " />
<path stroke="none" fill="#000000" transform="matrix(0.166667 0 0 0.166667 -30.0333 -49.3333)" d="M 3444.1,9356.98 L 3426.95,9366.88 L 3389.18,9301.46 L 3406.33,9291.56 L 3444.1,9356.98 Z " />
<path stroke="none" fill="#ff8181" transform="matrix(0.166667 0 0 0.166667 -30.0333 -49.3333)" d="M 7149.68,1216.2 A 102,102 0 1 0 7353.68,1216.2A 102,102 0 1 0 7149.68,1216.2Z " />
<path stroke="none" fill="#ff8181" transform="matrix(0.166667 0 0 0.166667 -30.0333 -49.3333)" d="M 6919.28,1343.2 A 102,102 0 1 0 7123.28,1343.2A 102,102 0 1 0 6919.28,1343.2Z " />
<path stroke="none" fill="#000000" transform="matrix(0.166667 0 0 0.166667 -30.0333 -49.3333)" d="M 6762.78,1210.48 L 6742.98,1221.92 L 6742.98,933.915 L 6752.88,928.2 L 6762.78,933.915 L 6762.78,1210.48 Z " />
<path stroke="none" fill="#000000" transform="matrix(0.166667 0 0 0.166667 -30.0333 -49.3333)" d="M 7007.23,1351.63 L 6997.33,1368.77 L 6742.98,1221.92 L 6762.78,1210.48 L 7007.23,1351.63 Z " />
<path stroke="none" fill="#000000" transform="matrix(0.166667 0 0 0.166667 -30.0333 -49.3333)" d="M 7033.15,1306.73 L 7023.25,1323.88 L 6799.77,1194.85 L 6809.67,1177.7 L 7033.15,1306.73 Z " />
<path stroke="none" fill="#000000" transform="matrix(0.166667 0 0 0.166667 -30.0333 -49.3333)" d="M 7241.78,922.484 L 7261.58,933.916 L 7261.58,1216.2 L 7241.78,1216.2 L 7241.78,922.484 Z " />
<path stroke="none" fill="#000000" transform="matrix(0.166667 0 0 0.166667 -30.0333 -49.3333)" d="M 7293.62,958.13 L 7313.42,958.13 L 7313.42,1216.2 L 7293.62,1216.2 L 7293.62,958.13 Z " />
<path stroke="none" fill="#000000" transform="matrix(0.166667 0 0 0.166667 -30.0333 -49.3333)" d="M 6762.78,933.915 L 6752.88,928.2 L 6752.88,916.768 L 6992.38,778.484 L 7012.18,789.915 L 6762.78,933.915 Z " />
<path stroke="none" fill="#000000" transform="matrix(0.166667 0 0 0.166667 -30.0333 -49.3333)" d="M 6757.83,876.915 L 6747.93,859.769 L 6945.49,745.699 L 6955.39,762.846 L 6757.83,876.915 Z " />
<path stroke="none" fill="#000000" transform="matrix(0.166667 0 0 0.166667 -30.0333 -49.3333)" d="M 6992.38,490.484 L 7012.18,501.916 L 7012.18,789.915 L 6992.38,778.484 L 6992.38,490.484 Z " />
<text x="0" y="0" stroke="none" fill="#000000" transform="matrix(0.166667 0 0 0.166667 994.508 94.3666)" font-style="normal" font-weight="normal" font-size="200px" font-family="Arial" >
MeO</text>
<path stroke="none" fill="#000000" transform="matrix(0.166667 0 0 0.166667 -30.0333 -49.3333)" d="M 6591.22,846.29 L 6601.12,829.144 L 6752.88,916.768 L 6752.88,928.2 L 6742.98,933.915 L 6591.22,846.29 Z " />
<path stroke="none" fill="#000000" transform="matrix(0.166667 0 0 0.166667 -30.0333 -49.3333)" d="M 7750.51,916.778 L 7750.51,939.641 L 7501.1,795.634 L 7501.1,784.203 L 7511,778.487 L 7750.51,916.778 Z " />
<path stroke="none" fill="#000000" transform="matrix(0.166667 0 0 0.166667 -30.0333 -49.3333)" d="M 7755.46,859.776 L 7745.56,876.923 L 7547.99,762.847 L 7557.89,745.701 L 7755.46,859.776 Z " />
<path stroke="none" fill="#000000" transform="matrix(0.166667 0 0 0.166667 -30.0333 -49.3333)" d="M 7990.03,778.487 L 8009.83,789.919 L 7750.51,939.641 L 7750.51,916.778 L 7990.03,778.487 Z " />
<path stroke="none" fill="#000000" transform="matrix(0.166667 0 0 0.166667 -30.0333 -49.3333)" d="M 7990.03,501.919 L 8009.83,490.487 L 8009.83,789.919 L 7990.03,778.487 L 7990.03,501.919 Z " />
<path stroke="none" fill="#000000" transform="matrix(0.166667 0 0 0.166667 -30.0333 -49.3333)" d="M 7938.19,526.132 L 7957.99,526.132 L 7957.99,754.274 L 7938.19,754.274 L 7938.19,526.132 Z " />
<path stroke="none" fill="#000000" transform="matrix(0.166667 0 0 0.166667 -30.0333 -49.3333)" d="M 7750.51,363.628 L 7750.51,340.765 L 8009.83,490.487 L 7990.03,501.919 L 7750.51,363.628 Z " />
<path stroke="none" fill="#000000" transform="matrix(0.166667 0 0 0.166667 -30.0333 -49.3333)" d="M 7511,501.919 L 7501.1,496.203 L 7501.1,484.771 L 7750.51,340.765 L 7750.51,363.628 L 7511,501.919 Z " />
<path stroke="none" fill="#000000" transform="matrix(0.166667 0 0 0.166667 -30.0333 -49.3333)" d="M 7557.89,534.705 L 7547.99,517.558 L 7745.56,403.484 L 7755.46,420.63 L 7557.89,534.705 Z " />
<path stroke="none" fill="#000000" transform="matrix(0.166667 0 0 0.166667 -30.0333 -49.3333)" d="M 7511,778.487 L 7501.1,784.203 L 7491.2,778.487 L 7491.2,501.919 L 7501.1,496.203 L 7511,501.919 L 7511,778.487 Z " />
<path stroke="none" fill="#000000" transform="matrix(0.166667 0 0 0.166667 -30.0333 -49.3333)" d="M 7251.7,340.768 L 7251.69,363.632 L 7012.18,501.916 L 6992.38,490.484 L 7251.7,340.768 Z " />
<path stroke="none" fill="#000000" transform="matrix(0.166667 0 0 0.166667 -30.0333 -49.3333)" d="M 7501.1,484.771 L 7501.1,496.203 L 7491.2,501.919 L 7251.69,363.632 L 7251.7,340.768 L 7501.1,484.771 Z " />
<path stroke="none" fill="#000000" transform="matrix(0.166667 0 0 0.166667 -30.0333 -49.3333)" d="M 7491.2,778.487 L 7501.1,784.203 L 7501.1,795.634 L 7261.58,933.916 L 7241.78,922.484 L 7491.2,778.487 Z " />
<path stroke="none" fill="#000000" transform="matrix(0.166667 0 0 0.166667 -30.0333 -49.3333)" d="M 4272.83,6944.66 L 4282.73,6950.37 L 4282.73,6961.8 L 4039.13,7102.44 L 4029.23,7085.3 L 4272.83,6944.66 Z " />
<path stroke="none" fill="#000000" transform="matrix(0.166667 0 0 0.166667 -30.0333 -49.3333)" d="M 4531.28,7082.44 L 4531.28,7105.3 L 4282.73,6961.8 L 4282.73,6950.37 L 4292.63,6944.66 L 4531.28,7082.44 Z " />
<path stroke="none" fill="#000000" transform="matrix(0.166667 0 0 0.166667 -30.0333 -49.3333)" d="M 4536.23,7025.65 L 4526.33,7042.79 L 4329.44,6929.12 L 4339.34,6911.97 L 4536.23,7025.65 Z " />
<path stroke="none" fill="#000000" transform="matrix(0.166667 0 0 0.166667 -30.0333 -49.3333)" d="M 4774.88,6941.8 L 4784.78,6958.94 L 4531.28,7105.3 L 4531.28,7082.44 L 4774.88,6941.8 Z " />
<text x="0" y="0" stroke="none" fill="#000000" transform="matrix(0.166667 0 0 0.166667 670.756 1074.23)" font-style="normal" font-weight="normal" font-size="200px" font-family="Arial" >
O</text>
<path stroke="none" fill="#000000" transform="matrix(0.166667 0 0 0.166667 -30.0333 -49.3333)" d="M 4272.83,6774.84 L 4292.63,6774.84 L 4292.63,6944.66 L 4282.73,6950.37 L 4272.83,6944.66 L 4272.83,6774.84 Z " />
<text x="0" y="0" stroke="none" fill="#000000" transform="matrix(0.166667 0 0 0.166667 714.242 1050.23)" font-style="normal" font-weight="normal" font-size="200px" font-family="Arial" >
K</text>
<path stroke="none" fill="#000000" transform="matrix(0.166667 0 0 0.166667 -30.0333 -49.3333)" d="M 4427.62,6568.29 L 4437.52,6585.44 L 4373.16,6622.6 L 4363.26,6605.45 L 4427.62,6568.29 Z " />
<path stroke="none" fill="#000000" transform="matrix(0.166667 0 0 0.166667 -30.0333 -49.3333)" d="M 4282.73,7646.94 L 4282.73,7669.8 L 4039.13,7810.44 L 4029.23,7793.3 L 4282.73,7646.94 Z " />
<path stroke="none" fill="#000000" transform="matrix(0.166667 0 0 0.166667 -30.0333 -49.3333)" d="M 4531.28,7790.44 L 4531.28,7813.3 L 4282.73,7669.8 L 4282.73,7646.94 L 4531.28,7790.44 Z " />
<path stroke="none" fill="#000000" transform="matrix(0.166667 0 0 0.166667 -30.0333 -49.3333)" d="M 4774.88,7649.8 L 4784.78,7666.94 L 4531.28,7813.3 L 4531.28,7790.44 L 4774.88,7649.8 Z " />
<text x="0" y="0" stroke="none" fill="#000000" transform="matrix(0.166667 0 0 0.166667 670.756 1192.23)" font-style="normal" font-weight="normal" font-size="200px" font-family="Arial" >
O</text>
<path stroke="none" fill="#000000" transform="matrix(0.166667 0 0 0.166667 -30.0333 -49.3333)" d="M 4247,7482.84 L 4266.8,7482.84 L 4266.8,7673.28 L 4247,7673.28 L 4247,7482.84 Z " />
<path stroke="none" fill="#000000" transform="matrix(0.166667 0 0 0.166667 -30.0333 -49.3333)" d="M 4298.66,7482.84 L 4318.46,7482.84 L 4318.46,7673.28 L 4298.66,7673.28 L 4298.66,7482.84 Z " />
<path stroke="none" fill="#000000" transform="matrix(0.166667 0 0 0.166667 -30.0333 -49.3333)" d="M 7160.52,9425.12 L 7160.52,9414.87 L 7170.41,9407.28 L 7418.06,9473.83 L 7459.24,9505.4 L 7160.52,9425.12 Z " />
<path stroke="none" fill="#000000" transform="matrix(0.166667 0 0 0.166667 -30.0333 -49.3333)" d="M 6877.63,9501.14 L 6887.15,9478.08 L 7150.61,9407.28 L 7160.52,9414.87 L 7160.52,9425.12 L 6877.63,9501.14 Z " />
<path stroke="none" fill="#000000" transform="matrix(0.166667 0 0 0.166667 -30.0333 -49.3333)" d="M 6722.94,9234.26 L 6753.02,9246.67 L 6887.15,9478.08 L 6877.63,9501.14 L 6722.94,9234.26 Z " />
<path stroke="none" fill="#000000" transform="matrix(0.166667 0 0 0.166667 -30.0333 -49.3333)" d="M 6808.17,9277.94 L 6825.3,9268.01 L 6915.87,9424.28 L 6898.74,9434.21 L 6808.17,9277.94 Z " />
<path stroke="none" fill="#000000" transform="matrix(0.166667 0 0 0.166667 -30.0333 -49.3333)" d="M 7287.73,9248.96 L 7300.76,9231.96 L 7459.24,9505.4 L 7418.06,9473.83 L 7287.73,9248.96 Z " />
<path stroke="none" fill="#000000" transform="matrix(0.166667 0 0 0.166667 -30.0333 -49.3333)" d="M 7016.11,9175.97 L 7016.11,9165.72 L 7031.13,9159.51 L 7118.58,9183.01 L 7118.6,9203.51 L 7016.11,9175.97 L 7016.11,9175.97 Z " />
<path stroke="none" fill="#000000" transform="matrix(0.166667 0 0 0.166667 -30.0333 -49.3333)" d="M 7300.76,9231.96 L 7287.73,9248.96 L 7202.02,9225.93 L 7202,9205.42 L 7300.76,9231.96 L 7300.76,9231.96 Z " />
<path stroke="none" fill="#000000" transform="matrix(0.166667 0 0 0.166667 -30.0333 -49.3333)" d="M 7009.59,9157.22 L 7016.11,9165.72 L 7016.11,9175.97 L 6753.02,9246.67 L 6722.94,9234.26 L 7009.59,9157.22 Z " />
<path stroke="none" fill="#000000" transform="matrix(0.166667 0 0 0.166667 -30.0333 -49.3333)" d="M 7146.48,8920.19 L 7160.01,8916.57 L 7150.15,8953.44 L 7031.13,9159.51 L 7016.11,9165.72 L 7009.59,9157.22 L 7146.48,8920.19 Z " />
<path stroke="none" fill="#000000" transform="matrix(0.166667 0 0 0.166667 -30.0333 -49.3333)" d="M 7150.15,8953.44 L 7160.01,8916.57 L 7169.9,8910.85 L 7170.41,9407.28 L 7160.52,9414.87 L 7150.61,9407.28 L 7150.15,8953.44 Z " />
<text x="0" y="0" stroke="none" fill="#000000" transform="matrix(0.166667 0 0 0.166667 1084.66 1425.76)" font-style="normal" font-weight="normal" font-size="200px" font-family="Arial" >
HO</text>
<path stroke="none" fill="#000000" transform="matrix(0.166667 0 0 0.166667 -30.0333 -49.3333)" d="M 6998.61,8834.82 L 7008.51,8817.67 L 7169.9,8910.85 L 7160.01,8916.57 L 7146.48,8920.19 L 6998.61,8834.82 Z " />
<path stroke="none" fill="#f9df37" transform="matrix(0.166667 0 0 0.166667 -30.0333 -49.3333)" d="M 6170.91,8858.89 A 102.036,102.036 0 1 0 6374.99,8858.89A 102.036,102.036 0 1 0 6170.91,8858.89Z " />
<path stroke="none" fill="#000000" transform="matrix(0.166667 0 0 0.166667 -30.0333 -49.3333)" d="M 5775.85,8847.46 L 5775.85,8870.32 L 5537.2,9008.11 L 5527.3,9002.39 L 5527.3,8990.96 L 5775.85,8847.46 Z " />
<text x="0" y="0" stroke="none" fill="#000000" transform="matrix(0.166667 0 0 0.166667 961.033 1464.07)" font-style="normal" font-weight="normal" font-size="200px" font-family="Arial" >
O</text>
<path stroke="none" fill="#000000" transform="matrix(0.166667 0 0 0.166667 -30.0333 -49.3333)" d="M 5938.51,8941.37 L 5928.61,8958.52 L 5775.85,8870.32 L 5775.85,8847.46 L 5938.51,8941.37 Z " />
<text x="0" y="0" stroke="none" fill="#000000" transform="matrix(0.166667 0 0 0.166667 919.608 1392.15)" font-style="normal" font-weight="normal" font-size="200px" font-family="Arial" >
O</text>
<path stroke="none" fill="#000000" transform="matrix(0.166667 0 0 0.166667 -30.0333 -49.3333)" d="M 5740.03,8688.56 L 5759.83,8688.56 L 5759.83,8873.86 L 5740.03,8873.86 L 5740.03,8688.56 Z " />
<path stroke="none" fill="#000000" transform="matrix(0.166667 0 0 0.166667 -30.0333 -49.3333)" d="M 5791.87,8688.56 L 5811.67,8688.56 L 5811.67,8873.86 L 5791.87,8873.86 L 5791.87,8688.56 Z " />
<text x="0" y="0" stroke="none" fill="#000000" transform="matrix(0.166667 0 0 0.166667 1002.46 1440.15)" font-style="normal" font-weight="normal" font-size="200px" font-family="Arial" >
O</text>
<path stroke="none" fill="#000000" transform="matrix(0.166667 0 0 0.166667 -30.0333 -49.3333)" d="M 6170.08,8906.85 L 6179.98,8924 L 6120.19,8958.52 L 6110.29,8941.37 L 6170.08,8906.85 Z " />
<path stroke="none" fill="#000000" transform="matrix(0.166667 0 0 0.166667 -30.0333 -49.3333)" d="M 5277.89,8869.82 L 5277.89,8846.96 L 5527.3,8990.96 L 5527.3,9002.39 L 5517.4,9008.11 L 5277.89,8869.82 Z " />
<path stroke="none" fill="#000000" transform="matrix(0.166667 0 0 0.166667 -30.0333 -49.3333)" d="M 5272.94,8926.83 L 5282.84,8909.68 L 5480.41,9023.75 L 5470.51,9040.9 L 5272.94,8926.83 Z " />
<path stroke="none" fill="#000000" transform="matrix(0.166667 0 0 0.166667 -30.0333 -49.3333)" d="M 5038.37,9008.11 L 5018.57,8996.68 L 5277.89,8846.96 L 5277.89,8869.82 L 5038.37,9008.11 Z " />
<path stroke="none" fill="#000000" transform="matrix(0.166667 0 0 0.166667 -30.0333 -49.3333)" d="M 5038.37,9284.68 L 5018.57,9296.11 L 5018.57,8996.68 L 5038.37,9008.11 L 5038.37,9284.68 Z " />
<path stroke="none" fill="#000000" transform="matrix(0.166667 0 0 0.166667 -30.0333 -49.3333)" d="M 5090.21,9260.46 L 5070.41,9260.46 L 5070.41,9032.32 L 5090.21,9032.32 L 5090.21,9260.46 Z " />
<path stroke="none" fill="#000000" transform="matrix(0.166667 0 0 0.166667 -30.0333 -49.3333)" d="M 5277.89,9422.96 L 5277.89,9434.39 L 5267.99,9440.11 L 5018.57,9296.11 L 5038.37,9284.68 L 5277.89,9422.96 Z " />
<path stroke="none" fill="#000000" transform="matrix(0.166667 0 0 0.166667 -30.0333 -49.3333)" d="M 5517.4,9284.68 L 5537.2,9296.11 L 5287.79,9440.11 L 5277.89,9434.39 L 5277.89,9422.96 L 5517.4,9284.68 Z " />
<path stroke="none" fill="#000000" transform="matrix(0.166667 0 0 0.166667 -30.0333 -49.3333)" d="M 5470.51,9251.89 L 5480.41,9269.04 L 5282.84,9383.11 L 5272.94,9365.96 L 5470.51,9251.89 Z " />
<path stroke="none" fill="#000000" transform="matrix(0.166667 0 0 0.166667 -30.0333 -49.3333)" d="M 5517.4,9008.11 L 5527.3,9002.39 L 5537.2,9008.11 L 5537.2,9296.11 L 5517.4,9284.68 L 5517.4,9008.11 Z " />
<text x="0" y="0" stroke="none" fill="#000000" transform="matrix(0.166667 0 0 0.166667 837.614 1584.07)" font-style="normal" font-weight="normal" font-size="200px" font-family="Arial" >
Cl</text>
<path stroke="none" fill="#000000" transform="matrix(0.166667 0 0 0.166667 -30.0333 -49.3333)" d="M 5287.79,9625.26 L 5267.99,9625.26 L 5267.99,9440.11 L 5277.89,9434.39 L 5287.79,9440.11 L 5287.79,9625.26 Z " />
<text x="0" y="0" stroke="none" fill="#000000" transform="matrix(0.166667 0 0 0.166667 1003.46 1392.15)" font-style="normal" font-weight="normal" font-size="200px" font-family="Arial" >
H</text>
<path stroke="none" fill="#000000" transform="matrix(0.166667 0 0 0.166667 -30.0333 -49.3333)" d="M 6263.05,8686.06 L 6282.85,8686.06 L 6282.85,8755.56 L 6263.05,8755.56 L 6263.05,8686.06 Z " />
</svg>
